<svg width="4400" height="2475" xmlns="http://www.w3.org/2000/svg" xmlns:xlink="http://www.w3.org/1999/xlink" xml:space="preserve" overflow="hidden"><defs><clipPath id="clip0"><rect x="1436" y="57" width="2829" height="2081"/></clipPath></defs><g><g clip-path="url(#clip0)"><path d="M3414.11 2087.07 1436 2087.07 1436 2023.07 3414.11 2023.07ZM3555.12 1927.06 1436 1927.06 1436 1863.06 3555.12 1863.06ZM3697.12 1767.06 1436 1767.06 1436 1703.06 3697.12 1703.06ZM3697.12 1608.05 1436 1608.05 1436 1544.05 3697.12 1544.05ZM3414.11 1448.05 1436 1448.05 1436 1384.05 3414.11 1384.05ZM3697.12 1288.04 1436 1288.04 1436 1224.04 3697.12 1224.04ZM3979.13 1128.04 1436 1128.04 1436 1064.03 3979.13 1064.03ZM3132.1 968.032 1436 968.032 1436 905.03 3132.1 905.03ZM3697.12 809.027 1436 809.027 1436 745.024 3697.12 745.024ZM3979.13 649.021 1436 649.021 1436 585.019 3979.13 585.019ZM3979.13 489.016 1436 489.016 1436 425.014 3979.13 425.014ZM3414.11 329.011 1436 329.011 1436 265.009 3414.11 265.009ZM3414.11 170.006 1436 170.006 1436 106.003 3414.11 106.003Z" fill="#DE472C"/></g><g><path d="M3697.12 2087.07 3414.11 2087.07 3414.11 2023.07 3697.12 2023.07ZM3697.12 1927.06 3555.12 1927.06 3555.12 1863.06 3697.12 1863.06ZM4262.14 1767.06 3697.12 1767.06 3697.12 1703.06 4262.14 1703.06ZM4262.14 1608.05 3697.12 1608.05 3697.12 1544.05 4262.14 1544.05ZM4262.14 1448.05 3414.11 1448.05 3414.11 1384.05 4262.14 1384.05ZM3979.13 1288.04 3697.12 1288.04 3697.12 1224.04 3979.13 1224.04ZM4262.14 1128.04 3979.13 1128.04 3979.13 1064.03 4262.14 1064.03ZM3414.11 968.032 3132.1 968.032 3132.1 905.03 3414.11 905.03ZM3979.13 809.027 3697.12 809.027 3697.12 745.024 3979.13 745.024ZM4262.14 649.021 3979.13 649.021 3979.13 585.019 4262.14 585.019ZM4262.14 489.016 3979.13 489.016 3979.13 425.014 4262.14 425.014ZM3697.12 329.011 3414.11 329.011 3414.11 265.009 3697.12 265.009ZM3697.12 170.006 3414.11 170.006 3414.11 106.003 3697.12 106.003Z" fill="#FECC01"/></g><g><path d="M3979.13 2087.07 3697.12 2087.07 3697.12 2023.07 3979.13 2023.07ZM3979.13 1927.06 3697.12 1927.06 3697.12 1863.06 3979.13 1863.06ZM4121.14 1288.04 3979.13 1288.04 3979.13 1224.04 4121.14 1224.04ZM3838.13 968.032 3414.11 968.032 3414.11 905.03 3838.13 905.03ZM4262.14 809.027 3979.13 809.027 3979.13 745.024 4262.14 745.024ZM3979.13 329.011 3697.12 329.011 3697.12 265.009 3979.13 265.009ZM3979.13 170.006 3697.12 170.006 3697.12 106.003 3979.13 106.003Z" fill="#739ED9"/></g><g><path d="M4262.14 2087.07 3979.13 2087.07 3979.13 2023.07 4262.14 2023.07ZM4262.14 1927.06 3979.13 1927.06 3979.13 1863.06 4262.14 1863.06ZM4262.14 1288.04 4121.14 1288.04 4121.14 1224.04 4262.14 1224.04ZM4262.14 968.032 3838.13 968.032 3838.13 905.03 4262.14 905.03ZM4262.14 329.011 3979.13 329.011 3979.13 265.009 4262.14 265.009ZM4262.14 170.006 3979.13 170.006 3979.13 106.003 4262.14 106.003Z" fill="#F7A70D"/></g><g><path d="M0 0 0.000360892 2077" stroke="#DFDFDB" stroke-width="3.4375" stroke-linejoin="round" stroke-miterlimit="10" fill="none" fill-rule="evenodd" transform="matrix(1 0 0 -1 1436.5 2134.5)"/></g><g><text fill="#FFFFFF" font-family="Red Hat Text,Red Hat Text_MSFontService,sans-serif" font-weight="700" font-size="64" transform="matrix(1 0 0 1 2357.63 2077)">70%</text></g><g><text fill="#FFFFFF" font-family="Red Hat Text,Red Hat Text_MSFontService,sans-serif" font-weight="700" font-size="64" transform="matrix(1 0 0 1 2493.16 2077)"> </text></g><g><text fill="#FFFFFF" font-family="Red Hat Text,Red Hat Text_MSFontService,sans-serif" font-weight="700" font-size="64" transform="matrix(1 0 0 1 2430.33 1918)">75%</text></g><g><text fill="#FFFFFF" font-family="Red Hat Text,Red Hat Text_MSFontService,sans-serif" font-weight="700" font-size="64" transform="matrix(1 0 0 1 2561.74 1918)"> </text></g><g><text fill="#FFFFFF" font-family="Red Hat Text,Red Hat Text_MSFontService,sans-serif" font-weight="700" font-size="64" transform="matrix(1 0 0 1 2497.94 1758)">80%</text></g><g><text fill="#FFFFFF" font-family="Red Hat Text,Red Hat Text_MSFontService,sans-serif" font-weight="700" font-size="64" transform="matrix(1 0 0 1 2635.4 1758)"> </text></g><g><text fill="#FFFFFF" font-family="Red Hat Text,Red Hat Text_MSFontService,sans-serif" font-weight="700" font-size="64" transform="matrix(1 0 0 1 2497.94 1598)">80%</text></g><g><text fill="#FFFFFF" font-family="Red Hat Text,Red Hat Text_MSFontService,sans-serif" font-weight="700" font-size="64" transform="matrix(1 0 0 1 2635.4 1598)"> </text></g><g><text fill="#FFFFFF" font-family="Red Hat Text,Red Hat Text_MSFontService,sans-serif" font-weight="700" font-size="64" transform="matrix(1 0 0 1 2357.63 1438)">70%</text></g><g><text fill="#FFFFFF" font-family="Red Hat Text,Red Hat Text_MSFontService,sans-serif" font-weight="700" font-size="64" transform="matrix(1 0 0 1 2493.16 1438)"> </text></g><g><text fill="#FFFFFF" font-family="Red Hat Text,Red Hat Text_MSFontService,sans-serif" font-weight="700" font-size="64" transform="matrix(1 0 0 1 2497.94 1279)">80%</text></g><g><text fill="#FFFFFF" font-family="Red Hat Text,Red Hat Text_MSFontService,sans-serif" font-weight="700" font-size="64" transform="matrix(1 0 0 1 2635.4 1279)"> </text></g><g><text fill="#FFFFFF" font-family="Red Hat Text,Red Hat Text_MSFontService,sans-serif" font-weight="700" font-size="64" transform="matrix(1 0 0 1 2638.81 1119)">90%</text></g><g><text fill="#FFFFFF" font-family="Red Hat Text,Red Hat Text_MSFontService,sans-serif" font-weight="700" font-size="64" transform="matrix(1 0 0 1 2777.08 1119)"> </text></g><g><text fill="#FFFFFF" font-family="Red Hat Text,Red Hat Text_MSFontService,sans-serif" font-weight="700" font-size="64" transform="matrix(1 0 0 1 2214.98 959)">60%</text></g><g><text fill="#FFFFFF" font-family="Red Hat Text,Red Hat Text_MSFontService,sans-serif" font-weight="700" font-size="64" transform="matrix(1 0 0 1 2353.26 959)"> </text></g><g><text fill="#FFFFFF" font-family="Red Hat Text,Red Hat Text_MSFontService,sans-serif" font-weight="700" font-size="64" transform="matrix(1 0 0 1 2497.94 799)">80%</text></g><g><text fill="#FFFFFF" font-family="Red Hat Text,Red Hat Text_MSFontService,sans-serif" font-weight="700" font-size="64" transform="matrix(1 0 0 1 2635.4 799)"> </text></g><g><text fill="#FFFFFF" font-family="Red Hat Text,Red Hat Text_MSFontService,sans-serif" font-weight="700" font-size="64" transform="matrix(1 0 0 1 2638.81 640)">90%</text></g><g><text fill="#FFFFFF" font-family="Red Hat Text,Red Hat Text_MSFontService,sans-serif" font-weight="700" font-size="64" transform="matrix(1 0 0 1 2777.08 640)"> </text></g><g><text fill="#FFFFFF" font-family="Red Hat Text,Red Hat Text_MSFontService,sans-serif" font-weight="700" font-size="64" transform="matrix(1 0 0 1 2638.81 480)">90%</text></g><g><text fill="#FFFFFF" font-family="Red Hat Text,Red Hat Text_MSFontService,sans-serif" font-weight="700" font-size="64" transform="matrix(1 0 0 1 2777.08 480)"> </text></g><g><text fill="#FFFFFF" font-family="Red Hat Text,Red Hat Text_MSFontService,sans-serif" font-weight="700" font-size="64" transform="matrix(1 0 0 1 2357.63 320)">70%</text></g><g><text fill="#FFFFFF" font-family="Red Hat Text,Red Hat Text_MSFontService,sans-serif" font-weight="700" font-size="64" transform="matrix(1 0 0 1 2493.16 320)"> </text></g><g><text fill="#FFFFFF" font-family="Red Hat Text,Red Hat Text_MSFontService,sans-serif" font-weight="700" font-size="64" transform="matrix(1 0 0 1 2357.63 160)">70%</text></g><g><text fill="#FFFFFF" font-family="Red Hat Text,Red Hat Text_MSFontService,sans-serif" font-weight="700" font-size="64" transform="matrix(1 0 0 1 2493.16 160)"> </text></g><g><text fill="#1D1D1A" font-family="Red Hat Text,Red Hat Text_MSFontService,sans-serif" font-weight="700" font-size="64" transform="matrix(1 0 0 1 3494.99 2077)">10%</text></g><g><text fill="#1D1D1A" font-family="Red Hat Text,Red Hat Text_MSFontService,sans-serif" font-weight="700" font-size="64" transform="matrix(1 0 0 1 3616.2 2077)"> </text></g><g><text fill="#1D1D1A" font-family="Red Hat Text,Red Hat Text_MSFontService,sans-serif" font-weight="700" font-size="64" transform="matrix(1 0 0 1 3580.35 1918)">5%</text></g><g><text fill="#1D1D1A" font-family="Red Hat Text,Red Hat Text_MSFontService,sans-serif" font-weight="700" font-size="64" transform="matrix(1 0 0 1 3672.11 1918)"> </text></g><g><text fill="#1D1D1A" font-family="Red Hat Text,Red Hat Text_MSFontService,sans-serif" font-weight="700" font-size="64" transform="matrix(1 0 0 1 3912.01 1758)">20%</text></g><g><text fill="#1D1D1A" font-family="Red Hat Text,Red Hat Text_MSFontService,sans-serif" font-weight="700" font-size="64" transform="matrix(1 0 0 1 4046.83 1758)"> </text></g><g><text fill="#1D1D1A" font-family="Red Hat Text,Red Hat Text_MSFontService,sans-serif" font-weight="700" font-size="64" transform="matrix(1 0 0 1 3912.01 1598)">20%</text></g><g><text fill="#1D1D1A" font-family="Red Hat Text,Red Hat Text_MSFontService,sans-serif" font-weight="700" font-size="64" transform="matrix(1 0 0 1 4046.83 1598)"> </text></g><g><text fill="#1D1D1A" font-family="Red Hat Text,Red Hat Text_MSFontService,sans-serif" font-weight="700" font-size="64" transform="matrix(1 0 0 1 3769.57 1438)">30%</text></g><g><text fill="#1D1D1A" font-family="Red Hat Text,Red Hat Text_MSFontService,sans-serif" font-weight="700" font-size="64" transform="matrix(1 0 0 1 3906.71 1438)"> </text></g><g><text fill="#1D1D1A" font-family="Red Hat Text,Red Hat Text_MSFontService,sans-serif" font-weight="700" font-size="64" transform="matrix(1 0 0 1 3777.54 1279)">10%</text></g><g><text fill="#1D1D1A" font-family="Red Hat Text,Red Hat Text_MSFontService,sans-serif" font-weight="700" font-size="64" transform="matrix(1 0 0 1 3898.74 1279)"> </text></g><g><text fill="#1D1D1A" font-family="Red Hat Text,Red Hat Text_MSFontService,sans-serif" font-weight="700" font-size="64" transform="matrix(1 0 0 1 4060.09 1119)">10%</text></g><g><text fill="#1D1D1A" font-family="Red Hat Text,Red Hat Text_MSFontService,sans-serif" font-weight="700" font-size="64" transform="matrix(1 0 0 1 4181.29 1119)"> </text></g><g><text fill="#1D1D1A" font-family="Red Hat Text,Red Hat Text_MSFontService,sans-serif" font-weight="700" font-size="64" transform="matrix(1 0 0 1 3212.44 959)">10%</text></g><g><text fill="#1D1D1A" font-family="Red Hat Text,Red Hat Text_MSFontService,sans-serif" font-weight="700" font-size="64" transform="matrix(1 0 0 1 3333.65 959)"> </text></g><g><text fill="#1D1D1A" font-family="Red Hat Text,Red Hat Text_MSFontService,sans-serif" font-weight="700" font-size="64" transform="matrix(1 0 0 1 3777.54 799)">10%</text></g><g><text fill="#1D1D1A" font-family="Red Hat Text,Red Hat Text_MSFontService,sans-serif" font-weight="700" font-size="64" transform="matrix(1 0 0 1 3898.74 799)"> </text></g><g><text fill="#1D1D1A" font-family="Red Hat Text,Red Hat Text_MSFontService,sans-serif" font-weight="700" font-size="64" transform="matrix(1 0 0 1 4060.09 640)">10%</text></g><g><text fill="#1D1D1A" font-family="Red Hat Text,Red Hat Text_MSFontService,sans-serif" font-weight="700" font-size="64" transform="matrix(1 0 0 1 4181.29 640)"> </text></g><g><text fill="#1D1D1A" font-family="Red Hat Text,Red Hat Text_MSFontService,sans-serif" font-weight="700" font-size="64" transform="matrix(1 0 0 1 4060.09 480)">10%</text></g><g><text fill="#1D1D1A" font-family="Red Hat Text,Red Hat Text_MSFontService,sans-serif" font-weight="700" font-size="64" transform="matrix(1 0 0 1 4181.29 480)"> </text></g><g><text fill="#1D1D1A" font-family="Red Hat Text,Red Hat Text_MSFontService,sans-serif" font-weight="700" font-size="64" transform="matrix(1 0 0 1 3494.99 320)">10%</text></g><g><text fill="#1D1D1A" font-family="Red Hat Text,Red Hat Text_MSFontService,sans-serif" font-weight="700" font-size="64" transform="matrix(1 0 0 1 3616.2 320)"> </text></g><g><text fill="#1D1D1A" font-family="Red Hat Text,Red Hat Text_MSFontService,sans-serif" font-weight="700" font-size="64" transform="matrix(1 0 0 1 3494.99 160)">10%</text></g><g><text fill="#1D1D1A" font-family="Red Hat Text,Red Hat Text_MSFontService,sans-serif" font-weight="700" font-size="64" transform="matrix(1 0 0 1 3616.2 160)"> </text></g><g><text fill="#1D1D1A" font-family="Red Hat Text,Red Hat Text_MSFontService,sans-serif" font-weight="700" font-size="64" transform="matrix(1 0 0 1 3777.54 2077)">10%</text></g><g><text fill="#1D1D1A" font-family="Red Hat Text,Red Hat Text_MSFontService,sans-serif" font-weight="700" font-size="64" transform="matrix(1 0 0 1 3898.74 2077)"> </text></g><g><text fill="#1D1D1A" font-family="Red Hat Text,Red Hat Text_MSFontService,sans-serif" font-weight="700" font-size="64" transform="matrix(1 0 0 1 3777.54 1918)">10%</text></g><g><text fill="#1D1D1A" font-family="Red Hat Text,Red Hat Text_MSFontService,sans-serif" font-weight="700" font-size="64" transform="matrix(1 0 0 1 3898.74 1918)"> </text></g><g><text fill="#1D1D1A" font-family="Red Hat Text,Red Hat Text_MSFontService,sans-serif" font-weight="700" font-size="64" transform="matrix(1 0 0 1 4004.17 1279)">5%</text></g><g><text fill="#1D1D1A" font-family="Red Hat Text,Red Hat Text_MSFontService,sans-serif" font-weight="700" font-size="64" transform="matrix(1 0 0 1 4095.93 1279)"> </text></g><g><text fill="#1D1D1A" font-family="Red Hat Text,Red Hat Text_MSFontService,sans-serif" font-weight="700" font-size="64" transform="matrix(1 0 0 1 3568 959)">15%</text></g><g><text fill="#1D1D1A" font-family="Red Hat Text,Red Hat Text_MSFontService,sans-serif" font-weight="700" font-size="64" transform="matrix(1 0 0 1 3684.46 959)"> </text></g><g><text fill="#1D1D1A" font-family="Red Hat Text,Red Hat Text_MSFontService,sans-serif" font-weight="700" font-size="64" transform="matrix(1 0 0 1 4060.09 799)">10%</text></g><g><text fill="#1D1D1A" font-family="Red Hat Text,Red Hat Text_MSFontService,sans-serif" font-weight="700" font-size="64" transform="matrix(1 0 0 1 4181.29 799)"> </text></g><g><text fill="#1D1D1A" font-family="Red Hat Text,Red Hat Text_MSFontService,sans-serif" font-weight="700" font-size="64" transform="matrix(1 0 0 1 3777.54 320)">10%</text></g><g><text fill="#1D1D1A" font-family="Red Hat Text,Red Hat Text_MSFontService,sans-serif" font-weight="700" font-size="64" transform="matrix(1 0 0 1 3898.74 320)"> </text></g><g><text fill="#1D1D1A" font-family="Red Hat Text,Red Hat Text_MSFontService,sans-serif" font-weight="700" font-size="64" transform="matrix(1 0 0 1 3777.54 160)">10%</text></g><g><text fill="#1D1D1A" font-family="Red Hat Text,Red Hat Text_MSFontService,sans-serif" font-weight="700" font-size="64" transform="matrix(1 0 0 1 3898.74 160)"> </text></g><g><text fill="#1D1D1A" font-family="Red Hat Text,Red Hat Text_MSFontService,sans-serif" font-weight="700" font-size="64" transform="matrix(1 0 0 1 4060.09 2077)">10%</text></g><g><text fill="#1D1D1A" font-family="Red Hat Text,Red Hat Text_MSFontService,sans-serif" font-weight="700" font-size="64" transform="matrix(1 0 0 1 4181.29 2077)"> </text></g><g><text fill="#1D1D1A" font-family="Red Hat Text,Red Hat Text_MSFontService,sans-serif" font-weight="700" font-size="64" transform="matrix(1 0 0 1 4060.09 1918)">10%</text></g><g><text fill="#1D1D1A" font-family="Red Hat Text,Red Hat Text_MSFontService,sans-serif" font-weight="700" font-size="64" transform="matrix(1 0 0 1 4181.29 1918)"> </text></g><g><text fill="#1D1D1A" font-family="Red Hat Text,Red Hat Text_MSFontService,sans-serif" font-weight="700" font-size="64" transform="matrix(1 0 0 1 4145.45 1279)">5%</text></g><g><text fill="#1D1D1A" font-family="Red Hat Text,Red Hat Text_MSFontService,sans-serif" font-weight="700" font-size="64" transform="matrix(1 0 0 1 4237.21 1279)"> </text></g><g><text fill="#1D1D1A" font-family="Red Hat Text,Red Hat Text_MSFontService,sans-serif" font-weight="700" font-size="64" transform="matrix(1 0 0 1 3991.82 959)">15%</text></g><g><text fill="#1D1D1A" font-family="Red Hat Text,Red Hat Text_MSFontService,sans-serif" font-weight="700" font-size="64" transform="matrix(1 0 0 1 4108.28 959)"> </text></g><g><text fill="#1D1D1A" font-family="Red Hat Text,Red Hat Text_MSFontService,sans-serif" font-weight="700" font-size="64" transform="matrix(1 0 0 1 4060.09 320)">10%</text></g><g><text fill="#1D1D1A" font-family="Red Hat Text,Red Hat Text_MSFontService,sans-serif" font-weight="700" font-size="64" transform="matrix(1 0 0 1 4181.29 320)"> </text></g><g><text fill="#1D1D1A" font-family="Red Hat Text,Red Hat Text_MSFontService,sans-serif" font-weight="700" font-size="64" transform="matrix(1 0 0 1 4060.09 160)">10%</text></g><g><text fill="#1D1D1A" font-family="Red Hat Text,Red Hat Text_MSFontService,sans-serif" font-weight="700" font-size="64" transform="matrix(1 0 0 1 4181.29 160)"> </text></g><g><text fill="#1D1D1A" font-family="Red Hat Text,Red Hat Text_MSFontService,sans-serif" font-weight="400" font-size="73" transform="matrix(1 0 0 1 60.9937 2076)">Theology, Divinity and Religious Studies</text></g><g><text fill="#1D1D1A" font-family="Red Hat Text,Red Hat Text_MSFontService,sans-serif" font-weight="400" font-size="73" transform="matrix(1 0 0 1 1004.04 1916)">Philosophy</text></g><g><text fill="#1D1D1A" font-family="Red Hat Text,Red Hat Text_MSFontService,sans-serif" font-weight="400" font-size="73" transform="matrix(1 0 0 1 839.45 1756)">Performing Arts</text></g><g><text fill="#1D1D1A" font-family="Red Hat Text,Red Hat Text_MSFontService,sans-serif" font-weight="400" font-size="73" transform="matrix(1 0 0 1 1172.8 1596)">Music</text></g><g><text fill="#1D1D1A" font-family="Red Hat Text,Red Hat Text_MSFontService,sans-serif" font-weight="400" font-size="73" transform="matrix(1 0 0 1 728.694 1436)">Modern Languages</text></g><g><text fill="#1D1D1A" font-family="Red Hat Text,Red Hat Text_MSFontService,sans-serif" font-weight="400" font-size="73" transform="matrix(1 0 0 1 1014.81 1277)">Linguistics</text></g><g><text fill="#1D1D1A" font-family="Red Hat Text,Red Hat Text_MSFontService,sans-serif" font-weight="400" font-size="73" transform="matrix(1 0 0 1 921.607 1117)">History of Art</text></g><g><text fill="#1D1D1A" font-family="Red Hat Text,Red Hat Text_MSFontService,sans-serif" font-weight="400" font-size="73" transform="matrix(1 0 0 1 1127.4 957)">History</text></g><g><text fill="#1D1D1A" font-family="Red Hat Text,Red Hat Text_MSFontService,sans-serif" font-weight="400" font-size="73" transform="matrix(1 0 0 1 297.974 797)">English Language and Literature</text></g><g><text fill="#1D1D1A" font-family="Red Hat Text,Red Hat Text_MSFontService,sans-serif" font-weight="400" font-size="73" transform="matrix(1 0 0 1 441.708 638)">Classics and Ancient History</text></g><g><text fill="#1D1D1A" font-family="Red Hat Text,Red Hat Text_MSFontService,sans-serif" font-weight="400" font-size="73" transform="matrix(1 0 0 1 878.454 478)">Art and Design</text></g><g><text fill="#1D1D1A" font-family="Red Hat Text,Red Hat Text_MSFontService,sans-serif" font-weight="400" font-size="73" transform="matrix(1 0 0 1 300.014 318)">Architecture / Built Environment</text></g><g><text fill="#1D1D1A" font-family="Red Hat Text,Red Hat Text_MSFontService,sans-serif" font-weight="400" font-size="73" transform="matrix(1 0 0 1 951.031 158)">Archaeology</text></g><g><rect x="924" y="2373" width="38.0002" height="38.0002" fill="#DE472C"/></g><g><text fill="#1D1D1A" font-family="Red Hat Text,Red Hat Text_MSFontService,sans-serif" font-weight="400" font-size="64" transform="matrix(1 0 0 1 979.81 2409)">Academic Reputation</text></g><g><rect x="1711" y="2373" width="38.0001" height="38.0002" fill="#FECC01"/></g><g><text fill="#1D1D1A" font-family="Red Hat Text,Red Hat Text_MSFontService,sans-serif" font-weight="400" font-size="64" transform="matrix(1 0 0 1 1766.13 2409)">Employer Reputation</text></g><g><rect x="2487" y="2373" width="37.9998" height="38.0002" fill="#739ED9"/></g><g><text fill="#1D1D1A" font-family="Red Hat Text,Red Hat Text_MSFontService,sans-serif" font-weight="400" font-size="64" transform="matrix(1 0 0 1 2542.6 2409)">Citations per Paper</text></g><g><rect x="3212" y="2373" width="38.0002" height="38.0002" fill="#F7A70D"/></g><g><text fill="#1D1D1A" font-family="Red Hat Text,Red Hat Text_MSFontService,sans-serif" font-weight="400" font-size="64" transform="matrix(1 0 0 1 3267.83 2409)">H-Index</text></g></g></svg>