<svg overflow="hidden" xmlns:xlink="http://www.w3.org/1999/xlink" xmlns="http://www.w3.org/2000/svg" height="720" width="1280"><defs><clipPath id="clip0"><rect height="720" width="1280" y="0" x="0"/></clipPath><clipPath id="clip1"><rect height="606" width="823" y="16" x="417"/></clipPath></defs><g clip-path="url(#clip0)"><rect fill="#FFFFFF" height="720" width="1280" y="0" x="0"/><g><path fill="#DE472C" d="M747 598 418 598 418 568 747 568ZM747 523 418 523 418 493 747 493ZM747 447 418 447 418 417 747 417ZM747 372 418 372 418 342 747 342ZM747 296 418 296 418 266 747 266ZM747 221 418 221 418 191 747 191ZM747 145 418 145 418 115 747 115ZM747 70 418 70 418 39 747 39Z"/></g><g><path fill="#FECC01" d="M993 598 747 598 747 568 993 568ZM993 523 747 523 747 493 993 493ZM993 447 747 447 747 417 993 417ZM993 372 747 372 747 342 993 342ZM993 296 747 296 747 266 993 266ZM993 221 747 221 747 191 993 191ZM993 145 747 145 747 115 993 115ZM993 70 747 70 747 39 993 39Z"/></g><g><path fill="#739ED9" d="M1117 598 993 598 993 568 1117 568ZM1117 523 993 523 993 493 1117 493ZM1096 447 993 447 993 417 1096 417ZM1096 372 993 372 993 342 1096 342ZM1117 296 993 296 993 266 1117 266ZM1096 221 993 221 993 191 1096 191ZM1117 145 993 145 993 115 1117 115ZM1096 70 993 70 993 39 1096 39Z"/></g><g><path fill="#F7A70D" d="M1240 598 1117 598 1117 568 1240 568ZM1240 523 1117 523 1117 493 1240 493ZM1199 447 1096 447 1096 417 1199 417ZM1199 372 1096 372 1096 342 1199 342ZM1240 296 1117 296 1117 266 1240 266ZM1199 221 1096 221 1096 191 1199 191ZM1240 145 1117 145 1117 115 1240 115ZM1199 70 1096 70 1096 39 1199 39Z"/></g><g clip-path="url(#clip1)"><path fill="#F76000" d="M1322 598 1240 598 1240 568 1322 568ZM1240 447 1199 447 1199 417 1240 417ZM1240 372 1199 372 1199 342 1240 342ZM1240 221 1199 221 1199 191 1240 191ZM1240 70 1199 70 1199 39 1240 39Z"/></g><g><path transform="matrix(1 0 0 -1 417.5 621.5)" fill-rule="evenodd" fill="none" stroke-miterlimit="10" stroke-linejoin="round" stroke="#DFDFDB" d="M0 0 0.000104987 605"/></g><g><text transform="translate(561.762 590)" font-size="19" font-weight="700" font-family="Red Hat Text,Red Hat Text_MSFontService,sans-serif" fill="#FFFFFF">40%</text></g><g><text transform="translate(602.789 590)" font-size="19" font-weight="700" font-family="Red Hat Text,Red Hat Text_MSFontService,sans-serif" fill="#FFFFFF"/></g><g><text transform="translate(561.762 514)" font-size="19" font-weight="700" font-family="Red Hat Text,Red Hat Text_MSFontService,sans-serif" fill="#FFFFFF">40%</text></g><g><text transform="translate(602.789 514)" font-size="19" font-weight="700" font-family="Red Hat Text,Red Hat Text_MSFontService,sans-serif" fill="#FFFFFF"/></g><g><text transform="translate(561.762 439)" font-size="19" font-weight="700" font-family="Red Hat Text,Red Hat Text_MSFontService,sans-serif" fill="#FFFFFF">40%</text></g><g><text transform="translate(602.789 439)" font-size="19" font-weight="700" font-family="Red Hat Text,Red Hat Text_MSFontService,sans-serif" fill="#FFFFFF"/></g><g><text transform="translate(561.762 363)" font-size="19" font-weight="700" font-family="Red Hat Text,Red Hat Text_MSFontService,sans-serif" fill="#FFFFFF">40%</text></g><g><text transform="translate(602.789 363)" font-size="19" font-weight="700" font-family="Red Hat Text,Red Hat Text_MSFontService,sans-serif" fill="#FFFFFF"/></g><g><text transform="translate(561.762 288)" font-size="19" font-weight="700" font-family="Red Hat Text,Red Hat Text_MSFontService,sans-serif" fill="#FFFFFF">40%</text></g><g><text transform="translate(602.789 288)" font-size="19" font-weight="700" font-family="Red Hat Text,Red Hat Text_MSFontService,sans-serif" fill="#FFFFFF"/></g><g><text transform="translate(561.762 212)" font-size="19" font-weight="700" font-family="Red Hat Text,Red Hat Text_MSFontService,sans-serif" fill="#FFFFFF">40%</text></g><g><text transform="translate(602.789 212)" font-size="19" font-weight="700" font-family="Red Hat Text,Red Hat Text_MSFontService,sans-serif" fill="#FFFFFF"/></g><g><text transform="translate(561.762 137)" font-size="19" font-weight="700" font-family="Red Hat Text,Red Hat Text_MSFontService,sans-serif" fill="#FFFFFF">40%</text></g><g><text transform="translate(602.789 137)" font-size="19" font-weight="700" font-family="Red Hat Text,Red Hat Text_MSFontService,sans-serif" fill="#FFFFFF"/></g><g><text transform="translate(561.762 61)" font-size="19" font-weight="700" font-family="Red Hat Text,Red Hat Text_MSFontService,sans-serif" fill="#FFFFFF">40%</text></g><g><text transform="translate(602.789 61)" font-size="19" font-weight="700" font-family="Red Hat Text,Red Hat Text_MSFontService,sans-serif" fill="#FFFFFF"/></g><g><text transform="translate(850.015 590)" font-size="19" font-weight="700" font-family="Red Hat Text,Red Hat Text_MSFontService,sans-serif" fill="#1D1D1A">30%</text></g><g><text transform="translate(889.909 590)" font-size="19" font-weight="700" font-family="Red Hat Text,Red Hat Text_MSFontService,sans-serif" fill="#1D1D1A"/></g><g><text transform="translate(850.015 514)" font-size="19" font-weight="700" font-family="Red Hat Text,Red Hat Text_MSFontService,sans-serif" fill="#1D1D1A">30%</text></g><g><text transform="translate(889.909 514)" font-size="19" font-weight="700" font-family="Red Hat Text,Red Hat Text_MSFontService,sans-serif" fill="#1D1D1A"/></g><g><text transform="translate(850.015 439)" font-size="19" font-weight="700" font-family="Red Hat Text,Red Hat Text_MSFontService,sans-serif" fill="#1D1D1A">30%</text></g><g><text transform="translate(889.909 439)" font-size="19" font-weight="700" font-family="Red Hat Text,Red Hat Text_MSFontService,sans-serif" fill="#1D1D1A"/></g><g><text transform="translate(850.015 363)" font-size="19" font-weight="700" font-family="Red Hat Text,Red Hat Text_MSFontService,sans-serif" fill="#1D1D1A">30%</text></g><g><text transform="translate(889.909 363)" font-size="19" font-weight="700" font-family="Red Hat Text,Red Hat Text_MSFontService,sans-serif" fill="#1D1D1A"/></g><g><text transform="translate(850.015 288)" font-size="19" font-weight="700" font-family="Red Hat Text,Red Hat Text_MSFontService,sans-serif" fill="#1D1D1A">30%</text></g><g><text transform="translate(889.909 288)" font-size="19" font-weight="700" font-family="Red Hat Text,Red Hat Text_MSFontService,sans-serif" fill="#1D1D1A"/></g><g><text transform="translate(850.015 212)" font-size="19" font-weight="700" font-family="Red Hat Text,Red Hat Text_MSFontService,sans-serif" fill="#1D1D1A">30%</text></g><g><text transform="translate(889.909 212)" font-size="19" font-weight="700" font-family="Red Hat Text,Red Hat Text_MSFontService,sans-serif" fill="#1D1D1A"/></g><g><text transform="translate(850.015 137)" font-size="19" font-weight="700" font-family="Red Hat Text,Red Hat Text_MSFontService,sans-serif" fill="#1D1D1A">30%</text></g><g><text transform="translate(889.909 137)" font-size="19" font-weight="700" font-family="Red Hat Text,Red Hat Text_MSFontService,sans-serif" fill="#1D1D1A"/></g><g><text transform="translate(850.015 61)" font-size="19" font-weight="700" font-family="Red Hat Text,Red Hat Text_MSFontService,sans-serif" fill="#1D1D1A">30%</text></g><g><text transform="translate(889.909 61)" font-size="19" font-weight="700" font-family="Red Hat Text,Red Hat Text_MSFontService,sans-serif" fill="#1D1D1A"/></g><g><text transform="translate(1037.96 590)" font-size="19" font-weight="700" font-family="Red Hat Text,Red Hat Text_MSFontService,sans-serif" fill="#1D1D1A">15%</text></g><g><text transform="translate(1071.84 590)" font-size="19" font-weight="700" font-family="Red Hat Text,Red Hat Text_MSFontService,sans-serif" fill="#1D1D1A"/></g><g><text transform="translate(1037.96 514)" font-size="19" font-weight="700" font-family="Red Hat Text,Red Hat Text_MSFontService,sans-serif" fill="#1D1D1A">15%</text></g><g><text transform="translate(1071.84 514)" font-size="19" font-weight="700" font-family="Red Hat Text,Red Hat Text_MSFontService,sans-serif" fill="#1D1D1A"/></g><g><text transform="translate(1019.78 439)" font-size="19" font-weight="700" font-family="Red Hat Text,Red Hat Text_MSFontService,sans-serif" fill="#1D1D1A">12.5%</text></g><g><text transform="translate(1069.48 439)" font-size="19" font-weight="700" font-family="Red Hat Text,Red Hat Text_MSFontService,sans-serif" fill="#1D1D1A"/></g><g><text transform="translate(1019.78 363)" font-size="19" font-weight="700" font-family="Red Hat Text,Red Hat Text_MSFontService,sans-serif" fill="#1D1D1A">12.5%</text></g><g><text transform="translate(1069.48 363)" font-size="19" font-weight="700" font-family="Red Hat Text,Red Hat Text_MSFontService,sans-serif" fill="#1D1D1A"/></g><g><text transform="translate(1037.96 288)" font-size="19" font-weight="700" font-family="Red Hat Text,Red Hat Text_MSFontService,sans-serif" fill="#1D1D1A">15%</text></g><g><text transform="translate(1071.84 288)" font-size="19" font-weight="700" font-family="Red Hat Text,Red Hat Text_MSFontService,sans-serif" fill="#1D1D1A"/></g><g><text transform="translate(1019.78 212)" font-size="19" font-weight="700" font-family="Red Hat Text,Red Hat Text_MSFontService,sans-serif" fill="#1D1D1A">12.5%</text></g><g><text transform="translate(1069.48 212)" font-size="19" font-weight="700" font-family="Red Hat Text,Red Hat Text_MSFontService,sans-serif" fill="#1D1D1A"/></g><g><text transform="translate(1037.96 137)" font-size="19" font-weight="700" font-family="Red Hat Text,Red Hat Text_MSFontService,sans-serif" fill="#1D1D1A">15%</text></g><g><text transform="translate(1071.84 137)" font-size="19" font-weight="700" font-family="Red Hat Text,Red Hat Text_MSFontService,sans-serif" fill="#1D1D1A"/></g><g><text transform="translate(1019.78 61)" font-size="19" font-weight="700" font-family="Red Hat Text,Red Hat Text_MSFontService,sans-serif" fill="#1D1D1A">12.5%</text></g><g><text transform="translate(1069.48 61)" font-size="19" font-weight="700" font-family="Red Hat Text,Red Hat Text_MSFontService,sans-serif" fill="#1D1D1A"/></g><g><text transform="translate(1161.26 590)" font-size="19" font-weight="700" font-family="Red Hat Text,Red Hat Text_MSFontService,sans-serif" fill="#1D1D1A">15%</text></g><g><text transform="translate(1195.14 590)" font-size="19" font-weight="700" font-family="Red Hat Text,Red Hat Text_MSFontService,sans-serif" fill="#1D1D1A"/></g><g><text transform="translate(1161.26 514)" font-size="19" font-weight="700" font-family="Red Hat Text,Red Hat Text_MSFontService,sans-serif" fill="#1D1D1A">15%</text></g><g><text transform="translate(1195.14 514)" font-size="19" font-weight="700" font-family="Red Hat Text,Red Hat Text_MSFontService,sans-serif" fill="#1D1D1A"/></g><g><text transform="translate(1122.53 439)" font-size="19" font-weight="700" font-family="Red Hat Text,Red Hat Text_MSFontService,sans-serif" fill="#1D1D1A">12.5%</text></g><g><text transform="translate(1172.22 439)" font-size="19" font-weight="700" font-family="Red Hat Text,Red Hat Text_MSFontService,sans-serif" fill="#1D1D1A"/></g><g><text transform="translate(1122.53 363)" font-size="19" font-weight="700" font-family="Red Hat Text,Red Hat Text_MSFontService,sans-serif" fill="#1D1D1A">12.5%</text></g><g><text transform="translate(1172.22 363)" font-size="19" font-weight="700" font-family="Red Hat Text,Red Hat Text_MSFontService,sans-serif" fill="#1D1D1A"/></g><g><text transform="translate(1161.26 288)" font-size="19" font-weight="700" font-family="Red Hat Text,Red Hat Text_MSFontService,sans-serif" fill="#1D1D1A">15%</text></g><g><text transform="translate(1195.14 288)" font-size="19" font-weight="700" font-family="Red Hat Text,Red Hat Text_MSFontService,sans-serif" fill="#1D1D1A"/></g><g><text transform="translate(1122.53 212)" font-size="19" font-weight="700" font-family="Red Hat Text,Red Hat Text_MSFontService,sans-serif" fill="#1D1D1A">12.5%</text></g><g><text transform="translate(1172.22 212)" font-size="19" font-weight="700" font-family="Red Hat Text,Red Hat Text_MSFontService,sans-serif" fill="#1D1D1A"/></g><g><text transform="translate(1161.26 137)" font-size="19" font-weight="700" font-family="Red Hat Text,Red Hat Text_MSFontService,sans-serif" fill="#1D1D1A">15%</text></g><g><text transform="translate(1195.14 137)" font-size="19" font-weight="700" font-family="Red Hat Text,Red Hat Text_MSFontService,sans-serif" fill="#1D1D1A"/></g><g><text transform="translate(1122.53 61)" font-size="19" font-weight="700" font-family="Red Hat Text,Red Hat Text_MSFontService,sans-serif" fill="#1D1D1A">12.5%</text></g><g><text transform="translate(1172.22 61)" font-size="19" font-weight="700" font-family="Red Hat Text,Red Hat Text_MSFontService,sans-serif" fill="#1D1D1A"/></g><g><text transform="translate(1205.95 439)" font-size="19" font-weight="700" font-family="Red Hat Text,Red Hat Text_MSFontService,sans-serif" fill="#1D1D1A">5%</text></g><g><text transform="translate(1232.64 439)" font-size="19" font-weight="700" font-family="Red Hat Text,Red Hat Text_MSFontService,sans-serif" fill="#1D1D1A"/></g><g><text transform="translate(1205.95 363)" font-size="19" font-weight="700" font-family="Red Hat Text,Red Hat Text_MSFontService,sans-serif" fill="#1D1D1A">5%</text></g><g><text transform="translate(1232.64 363)" font-size="19" font-weight="700" font-family="Red Hat Text,Red Hat Text_MSFontService,sans-serif" fill="#1D1D1A"/></g><g><text transform="translate(1205.95 212)" font-size="19" font-weight="700" font-family="Red Hat Text,Red Hat Text_MSFontService,sans-serif" fill="#1D1D1A">5%</text></g><g><text transform="translate(1232.64 212)" font-size="19" font-weight="700" font-family="Red Hat Text,Red Hat Text_MSFontService,sans-serif" fill="#1D1D1A"/></g><g><text transform="translate(1205.95 61)" font-size="19" font-weight="700" font-family="Red Hat Text,Red Hat Text_MSFontService,sans-serif" fill="#1D1D1A">5%</text></g><g><text transform="translate(1232.64 61)" font-size="19" font-weight="700" font-family="Red Hat Text,Red Hat Text_MSFontService,sans-serif" fill="#1D1D1A"/></g><g><text transform="translate(162.57 589)" font-size="21" font-weight="400" font-family="Red Hat Text,Red Hat Text_MSFontService,sans-serif" fill="#1D1D1A">Engineering - Petroleum</text></g><g><text transform="translate(83.4436 514)" font-size="21" font-weight="400" font-family="Red Hat Text,Red Hat Text_MSFontService,sans-serif" fill="#1D1D1A">Engineering - Mineral and Mining</text></g><g><text transform="translate(24.81 424)" font-size="21" font-weight="400" font-family="Red Hat Text,Red Hat Text_MSFontService,sans-serif" fill="#1D1D1A">Engineering - Mechanical, Aeronautical</text></g><g><text transform="translate(120.803 452)" font-size="21" font-weight="400" font-family="Red Hat Text,Red Hat Text_MSFontService,sans-serif" fill="#1D1D1A">and Manufacturing</text></g><g><text transform="translate(33.5633 363)" font-size="21" font-weight="400" font-family="Red Hat Text,Red Hat Text_MSFontService,sans-serif" fill="#1D1D1A">Engineering - Electrical and Electronic</text></g><g><text transform="translate(82.2101 287)" font-size="21" font-weight="400" font-family="Red Hat Text,Red Hat Text_MSFontService,sans-serif" fill="#1D1D1A">Engineering - Civil and Structural</text></g><g><text transform="translate(174.05 212)" font-size="21" font-weight="400" font-family="Red Hat Text,Red Hat Text_MSFontService,sans-serif" fill="#1D1D1A">Engineering - Chemical</text></g><g><text transform="translate(31.1433 136)" font-size="21" font-weight="400" font-family="Red Hat Text,Red Hat Text_MSFontService,sans-serif" fill="#1D1D1A">Data Science and Artificial Intelligence</text></g><g><text transform="translate(62.2301 47)" font-size="21" font-weight="400" font-family="Red Hat Text,Red Hat Text_MSFontService,sans-serif" fill="#1D1D1A">Computer Science and Information</text></g><g><text transform="translate(188.794 75)" font-size="21" font-weight="400" font-family="Red Hat Text,Red Hat Text_MSFontService,sans-serif" fill="#1D1D1A">Systems</text></g><g><rect fill="#DE472C" height="11" width="11" y="690" x="103"/></g><g><text transform="translate(119.192 701)" font-size="19" font-weight="400" font-family="Red Hat Text,Red Hat Text_MSFontService,sans-serif" fill="#1D1D1A">Academic Reputation</text></g><g><rect fill="#FECC01" height="11" width="11" y="690" x="337"/></g><g><text transform="translate(352.935 701)" font-size="19" font-weight="400" font-family="Red Hat Text,Red Hat Text_MSFontService,sans-serif" fill="#1D1D1A">Employer Reputation</text></g><g><rect fill="#739ED9" height="11" width="11" y="690" x="568"/></g><g><text transform="translate(583.811 701)" font-size="19" font-weight="400" font-family="Red Hat Text,Red Hat Text_MSFontService,sans-serif" fill="#1D1D1A">Citations per Paper</text></g><g><rect fill="#F7A70D" height="11" width="11" y="690" x="784"/></g><g><text transform="translate(799.781 701)" font-size="19" font-weight="400" font-family="Red Hat Text,Red Hat Text_MSFontService,sans-serif" fill="#1D1D1A">H-Index</text></g><g><rect fill="#F76000" height="11" width="11" y="690" x="905"/></g><g><text transform="translate(921.524 701)" font-size="19" font-weight="400" font-family="Red Hat Text,Red Hat Text_MSFontService,sans-serif" fill="#1D1D1A">International Research Network</text></g></g></svg>