<svg width="4400" height="2475" xmlns="http://www.w3.org/2000/svg" xmlns:xlink="http://www.w3.org/1999/xlink" xml:space="preserve" overflow="hidden"><defs><clipPath id="clip0"><rect x="1436" y="57" width="2829" height="2081"/></clipPath></defs><g><g clip-path="url(#clip0)"><path d="M2284.07 2066.07 1436 2066.07 1436 1973.06 2284.07 1973.06ZM2567.08 1835.06 1436 1835.06 1436 1742.06 2567.08 1742.06ZM2567.08 1604.05 1436 1604.05 1436 1512.05 2567.08 1512.05ZM2284.07 1373.05 1436 1373.05 1436 1281.04 2284.07 1281.04ZM2567.08 1142.04 1436 1142.04 1436 1050.03 2567.08 1050.03ZM2284.07 912.03 1436 912.03 1436 819.027 2284.07 819.027ZM2567.08 681.022 1436 681.022 1436 589.019 2567.08 589.019ZM2567.08 450.015 1436 450.015 1436 358.012 2567.08 358.012ZM2849.09 219.007 1436 219.007 1436 127.004 2849.09 127.004Z" fill="#DE472C"/></g><g><path d="M2567.08 2066.07 2284.07 2066.07 2284.07 1973.06 2567.08 1973.06ZM3132.1 1835.06 2567.08 1835.06 2567.08 1742.06 3132.1 1742.06ZM2849.09 1604.05 2567.08 1604.05 2567.08 1512.05 2849.09 1512.05ZM2567.08 1373.05 2284.07 1373.05 2284.07 1281.04 2567.08 1281.04ZM2849.09 1142.04 2567.08 1142.04 2567.08 1050.03 2849.09 1050.03ZM2567.08 912.03 2284.07 912.03 2284.07 819.027 2567.08 819.027ZM2849.09 681.022 2567.08 681.022 2567.08 589.019 2849.09 589.019ZM2849.09 450.015 2567.08 450.015 2567.08 358.012 2849.09 358.012ZM3132.1 219.007 2849.09 219.007 2849.09 127.004 3132.1 127.004Z" fill="#FECC01"/></g><g><path d="M3414.11 2066.07 2567.08 2066.07 2567.08 1973.06 3414.11 1973.06ZM3555.12 1835.06 3132.1 1835.06 3132.1 1742.06 3555.12 1742.06ZM3414.11 1604.05 2849.09 1604.05 2849.09 1512.05 3414.11 1512.05ZM3414.11 1373.05 2567.08 1373.05 2567.08 1281.04 3414.11 1281.04ZM3414.11 1142.04 2849.09 1142.04 2849.09 1050.03 3414.11 1050.03ZM3414.11 912.03 2567.08 912.03 2567.08 819.027 3414.11 819.027ZM3414.11 681.022 2849.09 681.022 2849.09 589.019 3414.11 589.019ZM3555.12 450.015 2849.09 450.015 2849.09 358.012 3555.12 358.012ZM3555.12 219.007 3132.1 219.007 3132.1 127.004 3555.12 127.004Z" fill="#739ED9"/></g><g><path d="M4262.14 2066.07 3414.11 2066.07 3414.11 1973.06 4262.14 1973.06ZM3979.13 1835.06 3555.12 1835.06 3555.12 1742.06 3979.13 1742.06ZM3979.13 1604.05 3414.11 1604.05 3414.11 1512.05 3979.13 1512.05ZM4262.14 1373.05 3414.11 1373.05 3414.11 1281.04 4262.14 1281.04ZM3979.13 1142.04 3414.11 1142.04 3414.11 1050.03 3979.13 1050.03ZM4262.14 912.03 3414.11 912.03 3414.11 819.027 4262.14 819.027ZM3979.13 681.022 3414.11 681.022 3414.11 589.019 3979.13 589.019ZM4262.14 450.015 3555.12 450.015 3555.12 358.012 4262.14 358.012ZM3979.13 219.007 3555.12 219.007 3555.12 127.004 3979.13 127.004Z" fill="#F7A70D"/></g><g><path d="M4262.14 1835.06 3979.13 1835.06 3979.13 1742.06 4262.14 1742.06ZM4262.14 1604.05 3979.13 1604.05 3979.13 1512.05 4262.14 1512.05ZM4262.14 1142.04 3979.13 1142.04 3979.13 1050.03 4262.14 1050.03ZM4262.14 681.022 3979.13 681.022 3979.13 589.019 4262.14 589.019ZM4262.14 219.007 3979.13 219.007 3979.13 127.004 4262.14 127.004Z" fill="#F76000"/></g><g><path d="M0 0 0.000360892 2077" stroke="#DFDFDB" stroke-width="3.4375" stroke-linejoin="round" stroke-miterlimit="10" fill="none" fill-rule="evenodd" transform="matrix(1 0 0 -1 1436.5 2134.5)"/></g><g><text fill="#FFFFFF" font-family="Red Hat Text,Red Hat Text_MSFontService,sans-serif" font-weight="700" font-size="64" transform="matrix(1 0 0 1 1791.73 2042)">30%</text></g><g><text fill="#FFFFFF" font-family="Red Hat Text,Red Hat Text_MSFontService,sans-serif" font-weight="700" font-size="64" transform="matrix(1 0 0 1 1928.87 2042)"> </text></g><g><text fill="#FFFFFF" font-family="Red Hat Text,Red Hat Text_MSFontService,sans-serif" font-weight="700" font-size="64" transform="matrix(1 0 0 1 1931.06 1811)">40%</text></g><g><text fill="#FFFFFF" font-family="Red Hat Text,Red Hat Text_MSFontService,sans-serif" font-weight="700" font-size="64" transform="matrix(1 0 0 1 2072.09 1811)"> </text></g><g><text fill="#FFFFFF" font-family="Red Hat Text,Red Hat Text_MSFontService,sans-serif" font-weight="700" font-size="64" transform="matrix(1 0 0 1 1931.06 1580)">40%</text></g><g><text fill="#FFFFFF" font-family="Red Hat Text,Red Hat Text_MSFontService,sans-serif" font-weight="700" font-size="64" transform="matrix(1 0 0 1 2072.09 1580)"> </text></g><g><text fill="#FFFFFF" font-family="Red Hat Text,Red Hat Text_MSFontService,sans-serif" font-weight="700" font-size="64" transform="matrix(1 0 0 1 1791.73 1350)">30%</text></g><g><text fill="#FFFFFF" font-family="Red Hat Text,Red Hat Text_MSFontService,sans-serif" font-weight="700" font-size="64" transform="matrix(1 0 0 1 1928.87 1350)"> </text></g><g><text fill="#FFFFFF" font-family="Red Hat Text,Red Hat Text_MSFontService,sans-serif" font-weight="700" font-size="64" transform="matrix(1 0 0 1 1931.06 1119)">40%</text></g><g><text fill="#FFFFFF" font-family="Red Hat Text,Red Hat Text_MSFontService,sans-serif" font-weight="700" font-size="64" transform="matrix(1 0 0 1 2072.09 1119)"> </text></g><g><text fill="#FFFFFF" font-family="Red Hat Text,Red Hat Text_MSFontService,sans-serif" font-weight="700" font-size="64" transform="matrix(1 0 0 1 1791.73 888)">30%</text></g><g><text fill="#FFFFFF" font-family="Red Hat Text,Red Hat Text_MSFontService,sans-serif" font-weight="700" font-size="64" transform="matrix(1 0 0 1 1928.87 888)"> </text></g><g><text fill="#FFFFFF" font-family="Red Hat Text,Red Hat Text_MSFontService,sans-serif" font-weight="700" font-size="64" transform="matrix(1 0 0 1 1931.06 657)">40%</text></g><g><text fill="#FFFFFF" font-family="Red Hat Text,Red Hat Text_MSFontService,sans-serif" font-weight="700" font-size="64" transform="matrix(1 0 0 1 2072.09 657)"> </text></g><g><text fill="#FFFFFF" font-family="Red Hat Text,Red Hat Text_MSFontService,sans-serif" font-weight="700" font-size="64" transform="matrix(1 0 0 1 1931.06 426)">40%</text></g><g><text fill="#FFFFFF" font-family="Red Hat Text,Red Hat Text_MSFontService,sans-serif" font-weight="700" font-size="64" transform="matrix(1 0 0 1 2072.09 426)"> </text></g><g><text fill="#FFFFFF" font-family="Red Hat Text,Red Hat Text_MSFontService,sans-serif" font-weight="700" font-size="64" transform="matrix(1 0 0 1 2074.83 196)">50%</text></g><g><text fill="#FFFFFF" font-family="Red Hat Text,Red Hat Text_MSFontService,sans-serif" font-weight="700" font-size="64" transform="matrix(1 0 0 1 2210.86 196)"> </text></g><g><text fill="#1D1D1A" font-family="Red Hat Text,Red Hat Text_MSFontService,sans-serif" font-weight="700" font-size="64" transform="matrix(1 0 0 1 2364.79 2042)">10%</text></g><g><text fill="#1D1D1A" font-family="Red Hat Text,Red Hat Text_MSFontService,sans-serif" font-weight="700" font-size="64" transform="matrix(1 0 0 1 2486 2042)"> </text></g><g><text fill="#1D1D1A" font-family="Red Hat Text,Red Hat Text_MSFontService,sans-serif" font-weight="700" font-size="64" transform="matrix(1 0 0 1 2781.81 1811)">20%</text></g><g><text fill="#1D1D1A" font-family="Red Hat Text,Red Hat Text_MSFontService,sans-serif" font-weight="700" font-size="64" transform="matrix(1 0 0 1 2916.63 1811)"> </text></g><g><text fill="#1D1D1A" font-family="Red Hat Text,Red Hat Text_MSFontService,sans-serif" font-weight="700" font-size="64" transform="matrix(1 0 0 1 2647.34 1580)">10%</text></g><g><text fill="#1D1D1A" font-family="Red Hat Text,Red Hat Text_MSFontService,sans-serif" font-weight="700" font-size="64" transform="matrix(1 0 0 1 2768.55 1580)"> </text></g><g><text fill="#1D1D1A" font-family="Red Hat Text,Red Hat Text_MSFontService,sans-serif" font-weight="700" font-size="64" transform="matrix(1 0 0 1 2364.79 1350)">10%</text></g><g><text fill="#1D1D1A" font-family="Red Hat Text,Red Hat Text_MSFontService,sans-serif" font-weight="700" font-size="64" transform="matrix(1 0 0 1 2486 1350)"> </text></g><g><text fill="#1D1D1A" font-family="Red Hat Text,Red Hat Text_MSFontService,sans-serif" font-weight="700" font-size="64" transform="matrix(1 0 0 1 2647.34 1119)">10%</text></g><g><text fill="#1D1D1A" font-family="Red Hat Text,Red Hat Text_MSFontService,sans-serif" font-weight="700" font-size="64" transform="matrix(1 0 0 1 2768.55 1119)"> </text></g><g><text fill="#1D1D1A" font-family="Red Hat Text,Red Hat Text_MSFontService,sans-serif" font-weight="700" font-size="64" transform="matrix(1 0 0 1 2364.79 888)">10%</text></g><g><text fill="#1D1D1A" font-family="Red Hat Text,Red Hat Text_MSFontService,sans-serif" font-weight="700" font-size="64" transform="matrix(1 0 0 1 2486 888)"> </text></g><g><text fill="#1D1D1A" font-family="Red Hat Text,Red Hat Text_MSFontService,sans-serif" font-weight="700" font-size="64" transform="matrix(1 0 0 1 2647.34 657)">10%</text></g><g><text fill="#1D1D1A" font-family="Red Hat Text,Red Hat Text_MSFontService,sans-serif" font-weight="700" font-size="64" transform="matrix(1 0 0 1 2768.55 657)"> </text></g><g><text fill="#1D1D1A" font-family="Red Hat Text,Red Hat Text_MSFontService,sans-serif" font-weight="700" font-size="64" transform="matrix(1 0 0 1 2647.34 426)">10%</text></g><g><text fill="#1D1D1A" font-family="Red Hat Text,Red Hat Text_MSFontService,sans-serif" font-weight="700" font-size="64" transform="matrix(1 0 0 1 2768.55 426)"> </text></g><g><text fill="#1D1D1A" font-family="Red Hat Text,Red Hat Text_MSFontService,sans-serif" font-weight="700" font-size="64" transform="matrix(1 0 0 1 2929.89 196)">10%</text></g><g><text fill="#1D1D1A" font-family="Red Hat Text,Red Hat Text_MSFontService,sans-serif" font-weight="700" font-size="64" transform="matrix(1 0 0 1 3051.1 196)"> </text></g><g><text fill="#1D1D1A" font-family="Red Hat Text,Red Hat Text_MSFontService,sans-serif" font-weight="700" font-size="64" transform="matrix(1 0 0 1 2921.93 2042)">30%</text></g><g><text fill="#1D1D1A" font-family="Red Hat Text,Red Hat Text_MSFontService,sans-serif" font-weight="700" font-size="64" transform="matrix(1 0 0 1 3059.06 2042)"> </text></g><g><text fill="#1D1D1A" font-family="Red Hat Text,Red Hat Text_MSFontService,sans-serif" font-weight="700" font-size="64" transform="matrix(1 0 0 1 3285.45 1811)">15%</text></g><g><text fill="#1D1D1A" font-family="Red Hat Text,Red Hat Text_MSFontService,sans-serif" font-weight="700" font-size="64" transform="matrix(1 0 0 1 3401.91 1811)"> </text></g><g><text fill="#1D1D1A" font-family="Red Hat Text,Red Hat Text_MSFontService,sans-serif" font-weight="700" font-size="64" transform="matrix(1 0 0 1 3064.36 1580)">20%</text></g><g><text fill="#1D1D1A" font-family="Red Hat Text,Red Hat Text_MSFontService,sans-serif" font-weight="700" font-size="64" transform="matrix(1 0 0 1 3199.18 1580)"> </text></g><g><text fill="#1D1D1A" font-family="Red Hat Text,Red Hat Text_MSFontService,sans-serif" font-weight="700" font-size="64" transform="matrix(1 0 0 1 2921.93 1350)">30%</text></g><g><text fill="#1D1D1A" font-family="Red Hat Text,Red Hat Text_MSFontService,sans-serif" font-weight="700" font-size="64" transform="matrix(1 0 0 1 3059.06 1350)"> </text></g><g><text fill="#1D1D1A" font-family="Red Hat Text,Red Hat Text_MSFontService,sans-serif" font-weight="700" font-size="64" transform="matrix(1 0 0 1 3064.36 1119)">20%</text></g><g><text fill="#1D1D1A" font-family="Red Hat Text,Red Hat Text_MSFontService,sans-serif" font-weight="700" font-size="64" transform="matrix(1 0 0 1 3199.18 1119)"> </text></g><g><text fill="#1D1D1A" font-family="Red Hat Text,Red Hat Text_MSFontService,sans-serif" font-weight="700" font-size="64" transform="matrix(1 0 0 1 2921.93 888)">30%</text></g><g><text fill="#1D1D1A" font-family="Red Hat Text,Red Hat Text_MSFontService,sans-serif" font-weight="700" font-size="64" transform="matrix(1 0 0 1 3059.06 888)"> </text></g><g><text fill="#1D1D1A" font-family="Red Hat Text,Red Hat Text_MSFontService,sans-serif" font-weight="700" font-size="64" transform="matrix(1 0 0 1 3064.36 657)">20%</text></g><g><text fill="#1D1D1A" font-family="Red Hat Text,Red Hat Text_MSFontService,sans-serif" font-weight="700" font-size="64" transform="matrix(1 0 0 1 3199.18 657)"> </text></g><g><text fill="#1D1D1A" font-family="Red Hat Text,Red Hat Text_MSFontService,sans-serif" font-weight="700" font-size="64" transform="matrix(1 0 0 1 3137.37 426)">25%</text></g><g><text fill="#1D1D1A" font-family="Red Hat Text,Red Hat Text_MSFontService,sans-serif" font-weight="700" font-size="64" transform="matrix(1 0 0 1 3267.44 426)"> </text></g><g><text fill="#1D1D1A" font-family="Red Hat Text,Red Hat Text_MSFontService,sans-serif" font-weight="700" font-size="64" transform="matrix(1 0 0 1 3285.45 196)">15%</text></g><g><text fill="#1D1D1A" font-family="Red Hat Text,Red Hat Text_MSFontService,sans-serif" font-weight="700" font-size="64" transform="matrix(1 0 0 1 3401.91 196)"> </text></g><g><text fill="#1D1D1A" font-family="Red Hat Text,Red Hat Text_MSFontService,sans-serif" font-weight="700" font-size="64" transform="matrix(1 0 0 1 3769.57 2042)">30%</text></g><g><text fill="#1D1D1A" font-family="Red Hat Text,Red Hat Text_MSFontService,sans-serif" font-weight="700" font-size="64" transform="matrix(1 0 0 1 3906.71 2042)"> </text></g><g><text fill="#1D1D1A" font-family="Red Hat Text,Red Hat Text_MSFontService,sans-serif" font-weight="700" font-size="64" transform="matrix(1 0 0 1 3709.27 1811)">15%</text></g><g><text fill="#1D1D1A" font-family="Red Hat Text,Red Hat Text_MSFontService,sans-serif" font-weight="700" font-size="64" transform="matrix(1 0 0 1 3825.74 1811)"> </text></g><g><text fill="#1D1D1A" font-family="Red Hat Text,Red Hat Text_MSFontService,sans-serif" font-weight="700" font-size="64" transform="matrix(1 0 0 1 3629.46 1580)">20%</text></g><g><text fill="#1D1D1A" font-family="Red Hat Text,Red Hat Text_MSFontService,sans-serif" font-weight="700" font-size="64" transform="matrix(1 0 0 1 3764.28 1580)"> </text></g><g><text fill="#1D1D1A" font-family="Red Hat Text,Red Hat Text_MSFontService,sans-serif" font-weight="700" font-size="64" transform="matrix(1 0 0 1 3769.57 1350)">30%</text></g><g><text fill="#1D1D1A" font-family="Red Hat Text,Red Hat Text_MSFontService,sans-serif" font-weight="700" font-size="64" transform="matrix(1 0 0 1 3906.71 1350)"> </text></g><g><text fill="#1D1D1A" font-family="Red Hat Text,Red Hat Text_MSFontService,sans-serif" font-weight="700" font-size="64" transform="matrix(1 0 0 1 3629.46 1119)">20%</text></g><g><text fill="#1D1D1A" font-family="Red Hat Text,Red Hat Text_MSFontService,sans-serif" font-weight="700" font-size="64" transform="matrix(1 0 0 1 3764.28 1119)"> </text></g><g><text fill="#1D1D1A" font-family="Red Hat Text,Red Hat Text_MSFontService,sans-serif" font-weight="700" font-size="64" transform="matrix(1 0 0 1 3769.57 888)">30%</text></g><g><text fill="#1D1D1A" font-family="Red Hat Text,Red Hat Text_MSFontService,sans-serif" font-weight="700" font-size="64" transform="matrix(1 0 0 1 3906.71 888)"> </text></g><g><text fill="#1D1D1A" font-family="Red Hat Text,Red Hat Text_MSFontService,sans-serif" font-weight="700" font-size="64" transform="matrix(1 0 0 1 3629.46 657)">20%</text></g><g><text fill="#1D1D1A" font-family="Red Hat Text,Red Hat Text_MSFontService,sans-serif" font-weight="700" font-size="64" transform="matrix(1 0 0 1 3764.28 657)"> </text></g><g><text fill="#1D1D1A" font-family="Red Hat Text,Red Hat Text_MSFontService,sans-serif" font-weight="700" font-size="64" transform="matrix(1 0 0 1 3843.74 426)">25%</text></g><g><text fill="#1D1D1A" font-family="Red Hat Text,Red Hat Text_MSFontService,sans-serif" font-weight="700" font-size="64" transform="matrix(1 0 0 1 3973.82 426)"> </text></g><g><text fill="#1D1D1A" font-family="Red Hat Text,Red Hat Text_MSFontService,sans-serif" font-weight="700" font-size="64" transform="matrix(1 0 0 1 3709.27 196)">15%</text></g><g><text fill="#1D1D1A" font-family="Red Hat Text,Red Hat Text_MSFontService,sans-serif" font-weight="700" font-size="64" transform="matrix(1 0 0 1 3825.74 196)"> </text></g><g><text fill="#1D1D1A" font-family="Red Hat Text,Red Hat Text_MSFontService,sans-serif" font-weight="700" font-size="64" transform="matrix(1 0 0 1 4060.09 1811)">10%</text></g><g><text fill="#1D1D1A" font-family="Red Hat Text,Red Hat Text_MSFontService,sans-serif" font-weight="700" font-size="64" transform="matrix(1 0 0 1 4181.29 1811)"> </text></g><g><text fill="#1D1D1A" font-family="Red Hat Text,Red Hat Text_MSFontService,sans-serif" font-weight="700" font-size="64" transform="matrix(1 0 0 1 4060.09 1580)">10%</text></g><g><text fill="#1D1D1A" font-family="Red Hat Text,Red Hat Text_MSFontService,sans-serif" font-weight="700" font-size="64" transform="matrix(1 0 0 1 4181.29 1580)"> </text></g><g><text fill="#1D1D1A" font-family="Red Hat Text,Red Hat Text_MSFontService,sans-serif" font-weight="700" font-size="64" transform="matrix(1 0 0 1 4060.09 1119)">10%</text></g><g><text fill="#1D1D1A" font-family="Red Hat Text,Red Hat Text_MSFontService,sans-serif" font-weight="700" font-size="64" transform="matrix(1 0 0 1 4181.29 1119)"> </text></g><g><text fill="#1D1D1A" font-family="Red Hat Text,Red Hat Text_MSFontService,sans-serif" font-weight="700" font-size="64" transform="matrix(1 0 0 1 4060.09 657)">10%</text></g><g><text fill="#1D1D1A" font-family="Red Hat Text,Red Hat Text_MSFontService,sans-serif" font-weight="700" font-size="64" transform="matrix(1 0 0 1 4181.29 657)"> </text></g><g><text fill="#1D1D1A" font-family="Red Hat Text,Red Hat Text_MSFontService,sans-serif" font-weight="700" font-size="64" transform="matrix(1 0 0 1 4060.09 196)">10%</text></g><g><text fill="#1D1D1A" font-family="Red Hat Text,Red Hat Text_MSFontService,sans-serif" font-weight="700" font-size="64" transform="matrix(1 0 0 1 4181.29 196)"> </text></g><g><text fill="#1D1D1A" font-family="Red Hat Text,Red Hat Text_MSFontService,sans-serif" font-weight="400" font-size="73" transform="matrix(1 0 0 1 745.95 2040)">Veterinary Science</text></g><g><text fill="#1D1D1A" font-family="Red Hat Text,Red Hat Text_MSFontService,sans-serif" font-weight="400" font-size="73" transform="matrix(1 0 0 1 987.01 1809)">Psychology</text></g><g><text fill="#1D1D1A" font-family="Red Hat Text,Red Hat Text_MSFontService,sans-serif" font-weight="400" font-size="73" transform="matrix(1 0 0 1 408.661 1578)">Pharmacy and Pharmacology</text></g><g><text fill="#1D1D1A" font-family="Red Hat Text,Red Hat Text_MSFontService,sans-serif" font-weight="400" font-size="73" transform="matrix(1 0 0 1 1110.05 1348)">Nursing</text></g><g><text fill="#1D1D1A" font-family="Red Hat Text,Red Hat Text_MSFontService,sans-serif" font-weight="400" font-size="73" transform="matrix(1 0 0 1 1065.32 1117)">Medicine</text></g><g><text fill="#1D1D1A" font-family="Red Hat Text,Red Hat Text_MSFontService,sans-serif" font-weight="400" font-size="73" transform="matrix(1 0 0 1 1061.17 886)">Dentistry</text></g><g><text fill="#1D1D1A" font-family="Red Hat Text,Red Hat Text_MSFontService,sans-serif" font-weight="400" font-size="73" transform="matrix(1 0 0 1 736.095 655)">Biological Sciences</text></g><g><text fill="#1D1D1A" font-family="Red Hat Text,Red Hat Text_MSFontService,sans-serif" font-weight="400" font-size="73" transform="matrix(1 0 0 1 555.971 424)">Anatomy and Physiology</text></g><g><text fill="#1D1D1A" font-family="Red Hat Text,Red Hat Text_MSFontService,sans-serif" font-weight="400" font-size="73" transform="matrix(1 0 0 1 567.91 194)">Agriculture and Forestry</text></g><g><rect x="354" y="2373" width="37.9998" height="38.0002" fill="#DE472C"/></g><g><text fill="#1D1D1A" font-family="Red Hat Text,Red Hat Text_MSFontService,sans-serif" font-weight="400" font-size="64" transform="matrix(1 0 0 1 409.722 2409)">Academic Reputation</text></g><g><rect x="1158" y="2373" width="37.9998" height="38.0002" fill="#FECC01"/></g><g><text fill="#1D1D1A" font-family="Red Hat Text,Red Hat Text_MSFontService,sans-serif" font-weight="400" font-size="64" transform="matrix(1 0 0 1 1213.21 2409)">Employer Reputation</text></g><g><rect x="1951" y="2373" width="37.9998" height="38.0002" fill="#739ED9"/></g><g><text fill="#1D1D1A" font-family="Red Hat Text,Red Hat Text_MSFontService,sans-serif" font-weight="400" font-size="64" transform="matrix(1 0 0 1 2006.85 2409)">Citations per Paper</text></g><g><rect x="2694" y="2373" width="38.0002" height="38.0002" fill="#F7A70D"/></g><g><text fill="#1D1D1A" font-family="Red Hat Text,Red Hat Text_MSFontService,sans-serif" font-weight="400" font-size="64" transform="matrix(1 0 0 1 2749.25 2409)">H-Index</text></g><g><rect x="3112" y="2373" width="38.0002" height="38.0002" fill="#F76000"/></g><g><text fill="#1D1D1A" font-family="Red Hat Text,Red Hat Text_MSFontService,sans-serif" font-weight="400" font-size="64" transform="matrix(1 0 0 1 3167.74 2409)">International Research Network</text></g></g></svg>