<svg width="4400" height="2475" xmlns="http://www.w3.org/2000/svg" xmlns:xlink="http://www.w3.org/1999/xlink" xml:space="preserve" overflow="hidden"><defs><clipPath id="clip0"><rect x="1436" y="57" width="2829" height="2081"/></clipPath></defs><g><g clip-path="url(#clip0)"><path d="M2567.08 2066.07 1436 2066.07 1436 1973.06 2567.08 1973.06ZM2567.08 1835.06 1436 1835.06 1436 1742.06 2567.08 1742.06ZM2567.08 1604.05 1436 1604.05 1436 1512.05 2567.08 1512.05ZM2284.07 1373.05 1436 1373.05 1436 1281.04 2284.07 1281.04ZM2284.07 1142.04 1436 1142.04 1436 1050.03 2284.07 1050.03ZM3132.1 912.03 1436 912.03 1436 819.027 3132.1 819.027ZM2567.08 681.022 1436 681.022 1436 589.019 2567.08 589.019ZM2567.08 450.015 1436 450.015 1436 358.012 2567.08 358.012ZM2567.08 219.007 1436 219.007 1436 127.004 2567.08 127.004Z" fill="#DE472C"/></g><g><path d="M3132.1 2066.07 2567.08 2066.07 2567.08 1973.06 3132.1 1973.06ZM3132.1 1835.06 2567.08 1835.06 2567.08 1742.06 3132.1 1742.06ZM2849.09 1604.05 2567.08 1604.05 2567.08 1512.05 2849.09 1512.05ZM2567.08 1373.05 2284.07 1373.05 2284.07 1281.04 2567.08 1281.04ZM2567.08 1142.04 2284.07 1142.04 2284.07 1050.03 2567.08 1050.03ZM3414.11 912.03 3132.1 912.03 3132.1 819.027 3414.11 819.027ZM2849.09 681.022 2567.08 681.022 2567.08 589.019 2849.09 589.019ZM2849.09 450.015 2567.08 450.015 2567.08 358.012 2849.09 358.012ZM3132.1 219.007 2567.08 219.007 2567.08 127.004 3132.1 127.004Z" fill="#FECC01"/></g><g><path d="M3555.12 2066.07 3132.1 2066.07 3132.1 1973.06 3555.12 1973.06ZM3555.12 1835.06 3132.1 1835.06 3132.1 1742.06 3555.12 1742.06ZM3414.11 1604.05 2849.09 1604.05 2849.09 1512.05 3414.11 1512.05ZM3273.11 1373.05 2567.08 1373.05 2567.08 1281.04 3273.11 1281.04ZM3273.11 1142.04 2567.08 1142.04 2567.08 1050.03 3273.11 1050.03ZM3838.13 912.03 3414.11 912.03 3414.11 819.027 3838.13 819.027ZM3485.11 681.022 2849.09 681.022 2849.09 589.019 3485.11 589.019ZM3414.11 450.015 2849.09 450.015 2849.09 358.012 3414.11 358.012ZM3555.12 219.007 3132.1 219.007 3132.1 127.004 3555.12 127.004Z" fill="#739ED9"/></g><g><path d="M3979.13 2066.07 3555.12 2066.07 3555.12 1973.06 3979.13 1973.06ZM3979.13 1835.06 3555.12 1835.06 3555.12 1742.06 3979.13 1742.06ZM3979.13 1604.05 3414.11 1604.05 3414.11 1512.05 3979.13 1512.05ZM3979.13 1373.05 3273.11 1373.05 3273.11 1281.04 3979.13 1281.04ZM3979.13 1142.04 3273.11 1142.04 3273.11 1050.03 3979.13 1050.03ZM4262.14 912.03 3838.13 912.03 3838.13 819.027 4262.14 819.027ZM4121.14 681.022 3485.11 681.022 3485.11 589.019 4121.14 589.019ZM3979.13 450.015 3414.11 450.015 3414.11 358.012 3979.13 358.012ZM3979.13 219.007 3555.12 219.007 3555.12 127.004 3979.13 127.004Z" fill="#F7A70D"/></g><g><path d="M4262.14 2066.07 3979.13 2066.07 3979.13 1973.06 4262.14 1973.06ZM4262.14 1835.06 3979.13 1835.06 3979.13 1742.06 4262.14 1742.06ZM4262.14 1604.05 3979.13 1604.05 3979.13 1512.05 4262.14 1512.05ZM4262.14 1373.05 3979.13 1373.05 3979.13 1281.04 4262.14 1281.04ZM4262.14 1142.04 3979.13 1142.04 3979.13 1050.03 4262.14 1050.03ZM4262.14 681.022 4121.14 681.022 4121.14 589.019 4262.14 589.019ZM4262.14 450.015 3979.13 450.015 3979.13 358.012 4262.14 358.012ZM4262.14 219.007 3979.13 219.007 3979.13 127.004 4262.14 127.004Z" fill="#F76000"/></g><g><path d="M0 0 0.000360892 2077" stroke="#DFDFDB" stroke-width="3.4375" stroke-linejoin="round" stroke-miterlimit="10" fill="none" fill-rule="evenodd" transform="matrix(1 0 0 -1 1436.5 2134.5)"/></g><g><text fill="#FFFFFF" font-family="Red Hat Text,Red Hat Text_MSFontService,sans-serif" font-weight="700" font-size="64" transform="matrix(1 0 0 1 1931.06 2042)">40%</text></g><g><text fill="#FFFFFF" font-family="Red Hat Text,Red Hat Text_MSFontService,sans-serif" font-weight="700" font-size="64" transform="matrix(1 0 0 1 2072.09 2042)"> </text></g><g><text fill="#FFFFFF" font-family="Red Hat Text,Red Hat Text_MSFontService,sans-serif" font-weight="700" font-size="64" transform="matrix(1 0 0 1 1931.06 1811)">40%</text></g><g><text fill="#FFFFFF" font-family="Red Hat Text,Red Hat Text_MSFontService,sans-serif" font-weight="700" font-size="64" transform="matrix(1 0 0 1 2072.09 1811)"> </text></g><g><text fill="#FFFFFF" font-family="Red Hat Text,Red Hat Text_MSFontService,sans-serif" font-weight="700" font-size="64" transform="matrix(1 0 0 1 1931.06 1580)">40%</text></g><g><text fill="#FFFFFF" font-family="Red Hat Text,Red Hat Text_MSFontService,sans-serif" font-weight="700" font-size="64" transform="matrix(1 0 0 1 2072.09 1580)"> </text></g><g><text fill="#FFFFFF" font-family="Red Hat Text,Red Hat Text_MSFontService,sans-serif" font-weight="700" font-size="64" transform="matrix(1 0 0 1 1791.73 1350)">30%</text></g><g><text fill="#FFFFFF" font-family="Red Hat Text,Red Hat Text_MSFontService,sans-serif" font-weight="700" font-size="64" transform="matrix(1 0 0 1 1928.87 1350)"> </text></g><g><text fill="#FFFFFF" font-family="Red Hat Text,Red Hat Text_MSFontService,sans-serif" font-weight="700" font-size="64" transform="matrix(1 0 0 1 1791.73 1119)">30%</text></g><g><text fill="#FFFFFF" font-family="Red Hat Text,Red Hat Text_MSFontService,sans-serif" font-weight="700" font-size="64" transform="matrix(1 0 0 1 1928.87 1119)"> </text></g><g><text fill="#FFFFFF" font-family="Red Hat Text,Red Hat Text_MSFontService,sans-serif" font-weight="700" font-size="64" transform="matrix(1 0 0 1 2214.98 888)">60%</text></g><g><text fill="#FFFFFF" font-family="Red Hat Text,Red Hat Text_MSFontService,sans-serif" font-weight="700" font-size="64" transform="matrix(1 0 0 1 2353.26 888)"> </text></g><g><text fill="#FFFFFF" font-family="Red Hat Text,Red Hat Text_MSFontService,sans-serif" font-weight="700" font-size="64" transform="matrix(1 0 0 1 1931.06 657)">40%</text></g><g><text fill="#FFFFFF" font-family="Red Hat Text,Red Hat Text_MSFontService,sans-serif" font-weight="700" font-size="64" transform="matrix(1 0 0 1 2072.09 657)"> </text></g><g><text fill="#FFFFFF" font-family="Red Hat Text,Red Hat Text_MSFontService,sans-serif" font-weight="700" font-size="64" transform="matrix(1 0 0 1 1931.06 426)">40%</text></g><g><text fill="#FFFFFF" font-family="Red Hat Text,Red Hat Text_MSFontService,sans-serif" font-weight="700" font-size="64" transform="matrix(1 0 0 1 2072.09 426)"> </text></g><g><text fill="#FFFFFF" font-family="Red Hat Text,Red Hat Text_MSFontService,sans-serif" font-weight="700" font-size="64" transform="matrix(1 0 0 1 1931.06 196)">40%</text></g><g><text fill="#FFFFFF" font-family="Red Hat Text,Red Hat Text_MSFontService,sans-serif" font-weight="700" font-size="64" transform="matrix(1 0 0 1 2072.09 196)"> </text></g><g><text fill="#1D1D1A" font-family="Red Hat Text,Red Hat Text_MSFontService,sans-serif" font-weight="700" font-size="64" transform="matrix(1 0 0 1 2781.81 2042)">20%</text></g><g><text fill="#1D1D1A" font-family="Red Hat Text,Red Hat Text_MSFontService,sans-serif" font-weight="700" font-size="64" transform="matrix(1 0 0 1 2916.63 2042)"> </text></g><g><text fill="#1D1D1A" font-family="Red Hat Text,Red Hat Text_MSFontService,sans-serif" font-weight="700" font-size="64" transform="matrix(1 0 0 1 2781.81 1811)">20%</text></g><g><text fill="#1D1D1A" font-family="Red Hat Text,Red Hat Text_MSFontService,sans-serif" font-weight="700" font-size="64" transform="matrix(1 0 0 1 2916.63 1811)"> </text></g><g><text fill="#1D1D1A" font-family="Red Hat Text,Red Hat Text_MSFontService,sans-serif" font-weight="700" font-size="64" transform="matrix(1 0 0 1 2647.34 1580)">10%</text></g><g><text fill="#1D1D1A" font-family="Red Hat Text,Red Hat Text_MSFontService,sans-serif" font-weight="700" font-size="64" transform="matrix(1 0 0 1 2768.55 1580)"> </text></g><g><text fill="#1D1D1A" font-family="Red Hat Text,Red Hat Text_MSFontService,sans-serif" font-weight="700" font-size="64" transform="matrix(1 0 0 1 2364.79 1350)">10%</text></g><g><text fill="#1D1D1A" font-family="Red Hat Text,Red Hat Text_MSFontService,sans-serif" font-weight="700" font-size="64" transform="matrix(1 0 0 1 2486 1350)"> </text></g><g><text fill="#1D1D1A" font-family="Red Hat Text,Red Hat Text_MSFontService,sans-serif" font-weight="700" font-size="64" transform="matrix(1 0 0 1 2364.79 1119)">10%</text></g><g><text fill="#1D1D1A" font-family="Red Hat Text,Red Hat Text_MSFontService,sans-serif" font-weight="700" font-size="64" transform="matrix(1 0 0 1 2486 1119)"> </text></g><g><text fill="#1D1D1A" font-family="Red Hat Text,Red Hat Text_MSFontService,sans-serif" font-weight="700" font-size="64" transform="matrix(1 0 0 1 3212.44 888)">10%</text></g><g><text fill="#1D1D1A" font-family="Red Hat Text,Red Hat Text_MSFontService,sans-serif" font-weight="700" font-size="64" transform="matrix(1 0 0 1 3333.65 888)"> </text></g><g><text fill="#1D1D1A" font-family="Red Hat Text,Red Hat Text_MSFontService,sans-serif" font-weight="700" font-size="64" transform="matrix(1 0 0 1 2647.34 657)">10%</text></g><g><text fill="#1D1D1A" font-family="Red Hat Text,Red Hat Text_MSFontService,sans-serif" font-weight="700" font-size="64" transform="matrix(1 0 0 1 2768.55 657)"> </text></g><g><text fill="#1D1D1A" font-family="Red Hat Text,Red Hat Text_MSFontService,sans-serif" font-weight="700" font-size="64" transform="matrix(1 0 0 1 2647.34 426)">10%</text></g><g><text fill="#1D1D1A" font-family="Red Hat Text,Red Hat Text_MSFontService,sans-serif" font-weight="700" font-size="64" transform="matrix(1 0 0 1 2768.55 426)"> </text></g><g><text fill="#1D1D1A" font-family="Red Hat Text,Red Hat Text_MSFontService,sans-serif" font-weight="700" font-size="64" transform="matrix(1 0 0 1 2781.81 196)">20%</text></g><g><text fill="#1D1D1A" font-family="Red Hat Text,Red Hat Text_MSFontService,sans-serif" font-weight="700" font-size="64" transform="matrix(1 0 0 1 2916.63 196)"> </text></g><g><text fill="#1D1D1A" font-family="Red Hat Text,Red Hat Text_MSFontService,sans-serif" font-weight="700" font-size="64" transform="matrix(1 0 0 1 3285.45 2042)">15%</text></g><g><text fill="#1D1D1A" font-family="Red Hat Text,Red Hat Text_MSFontService,sans-serif" font-weight="700" font-size="64" transform="matrix(1 0 0 1 3401.91 2042)"> </text></g><g><text fill="#1D1D1A" font-family="Red Hat Text,Red Hat Text_MSFontService,sans-serif" font-weight="700" font-size="64" transform="matrix(1 0 0 1 3285.45 1811)">15%</text></g><g><text fill="#1D1D1A" font-family="Red Hat Text,Red Hat Text_MSFontService,sans-serif" font-weight="700" font-size="64" transform="matrix(1 0 0 1 3401.91 1811)"> </text></g><g><text fill="#1D1D1A" font-family="Red Hat Text,Red Hat Text_MSFontService,sans-serif" font-weight="700" font-size="64" transform="matrix(1 0 0 1 3064.36 1580)">20%</text></g><g><text fill="#1D1D1A" font-family="Red Hat Text,Red Hat Text_MSFontService,sans-serif" font-weight="700" font-size="64" transform="matrix(1 0 0 1 3199.18 1580)"> </text></g><g><text fill="#1D1D1A" font-family="Red Hat Text,Red Hat Text_MSFontService,sans-serif" font-weight="700" font-size="64" transform="matrix(1 0 0 1 2854.82 1350)">25%</text></g><g><text fill="#1D1D1A" font-family="Red Hat Text,Red Hat Text_MSFontService,sans-serif" font-weight="700" font-size="64" transform="matrix(1 0 0 1 2984.89 1350)"> </text></g><g><text fill="#1D1D1A" font-family="Red Hat Text,Red Hat Text_MSFontService,sans-serif" font-weight="700" font-size="64" transform="matrix(1 0 0 1 2854.82 1119)">25%</text></g><g><text fill="#1D1D1A" font-family="Red Hat Text,Red Hat Text_MSFontService,sans-serif" font-weight="700" font-size="64" transform="matrix(1 0 0 1 2984.89 1119)"> </text></g><g><text fill="#1D1D1A" font-family="Red Hat Text,Red Hat Text_MSFontService,sans-serif" font-weight="700" font-size="64" transform="matrix(1 0 0 1 3568 888)">15%</text></g><g><text fill="#1D1D1A" font-family="Red Hat Text,Red Hat Text_MSFontService,sans-serif" font-weight="700" font-size="64" transform="matrix(1 0 0 1 3684.46 888)"> </text></g><g><text fill="#1D1D1A" font-family="Red Hat Text,Red Hat Text_MSFontService,sans-serif" font-weight="700" font-size="64" transform="matrix(1 0 0 1 3074.88 657)">22.5%</text></g><g><text fill="#1D1D1A" font-family="Red Hat Text,Red Hat Text_MSFontService,sans-serif" font-weight="700" font-size="64" transform="matrix(1 0 0 1 3259.29 657)"> </text></g><g><text fill="#1D1D1A" font-family="Red Hat Text,Red Hat Text_MSFontService,sans-serif" font-weight="700" font-size="64" transform="matrix(1 0 0 1 3064.36 426)">20%</text></g><g><text fill="#1D1D1A" font-family="Red Hat Text,Red Hat Text_MSFontService,sans-serif" font-weight="700" font-size="64" transform="matrix(1 0 0 1 3199.18 426)"> </text></g><g><text fill="#1D1D1A" font-family="Red Hat Text,Red Hat Text_MSFontService,sans-serif" font-weight="700" font-size="64" transform="matrix(1 0 0 1 3285.45 196)">15%</text></g><g><text fill="#1D1D1A" font-family="Red Hat Text,Red Hat Text_MSFontService,sans-serif" font-weight="700" font-size="64" transform="matrix(1 0 0 1 3401.91 196)"> </text></g><g><text fill="#1D1D1A" font-family="Red Hat Text,Red Hat Text_MSFontService,sans-serif" font-weight="700" font-size="64" transform="matrix(1 0 0 1 3709.27 2042)">15%</text></g><g><text fill="#1D1D1A" font-family="Red Hat Text,Red Hat Text_MSFontService,sans-serif" font-weight="700" font-size="64" transform="matrix(1 0 0 1 3825.74 2042)"> </text></g><g><text fill="#1D1D1A" font-family="Red Hat Text,Red Hat Text_MSFontService,sans-serif" font-weight="700" font-size="64" transform="matrix(1 0 0 1 3709.27 1811)">15%</text></g><g><text fill="#1D1D1A" font-family="Red Hat Text,Red Hat Text_MSFontService,sans-serif" font-weight="700" font-size="64" transform="matrix(1 0 0 1 3825.74 1811)"> </text></g><g><text fill="#1D1D1A" font-family="Red Hat Text,Red Hat Text_MSFontService,sans-serif" font-weight="700" font-size="64" transform="matrix(1 0 0 1 3629.46 1580)">20%</text></g><g><text fill="#1D1D1A" font-family="Red Hat Text,Red Hat Text_MSFontService,sans-serif" font-weight="700" font-size="64" transform="matrix(1 0 0 1 3764.28 1580)"> </text></g><g><text fill="#1D1D1A" font-family="Red Hat Text,Red Hat Text_MSFontService,sans-serif" font-weight="700" font-size="64" transform="matrix(1 0 0 1 3561.19 1350)">25%</text></g><g><text fill="#1D1D1A" font-family="Red Hat Text,Red Hat Text_MSFontService,sans-serif" font-weight="700" font-size="64" transform="matrix(1 0 0 1 3691.27 1350)"> </text></g><g><text fill="#1D1D1A" font-family="Red Hat Text,Red Hat Text_MSFontService,sans-serif" font-weight="700" font-size="64" transform="matrix(1 0 0 1 3561.19 1119)">25%</text></g><g><text fill="#1D1D1A" font-family="Red Hat Text,Red Hat Text_MSFontService,sans-serif" font-weight="700" font-size="64" transform="matrix(1 0 0 1 3691.27 1119)"> </text></g><g><text fill="#1D1D1A" font-family="Red Hat Text,Red Hat Text_MSFontService,sans-serif" font-weight="700" font-size="64" transform="matrix(1 0 0 1 3991.82 888)">15%</text></g><g><text fill="#1D1D1A" font-family="Red Hat Text,Red Hat Text_MSFontService,sans-serif" font-weight="700" font-size="64" transform="matrix(1 0 0 1 4108.28 888)"> </text></g><g><text fill="#1D1D1A" font-family="Red Hat Text,Red Hat Text_MSFontService,sans-serif" font-weight="700" font-size="64" transform="matrix(1 0 0 1 3710.62 657)">22.5%</text></g><g><text fill="#1D1D1A" font-family="Red Hat Text,Red Hat Text_MSFontService,sans-serif" font-weight="700" font-size="64" transform="matrix(1 0 0 1 3895.03 657)"> </text></g><g><text fill="#1D1D1A" font-family="Red Hat Text,Red Hat Text_MSFontService,sans-serif" font-weight="700" font-size="64" transform="matrix(1 0 0 1 3629.46 426)">20%</text></g><g><text fill="#1D1D1A" font-family="Red Hat Text,Red Hat Text_MSFontService,sans-serif" font-weight="700" font-size="64" transform="matrix(1 0 0 1 3764.28 426)"> </text></g><g><text fill="#1D1D1A" font-family="Red Hat Text,Red Hat Text_MSFontService,sans-serif" font-weight="700" font-size="64" transform="matrix(1 0 0 1 3709.27 196)">15%</text></g><g><text fill="#1D1D1A" font-family="Red Hat Text,Red Hat Text_MSFontService,sans-serif" font-weight="700" font-size="64" transform="matrix(1 0 0 1 3825.74 196)"> </text></g><g><text fill="#1D1D1A" font-family="Red Hat Text,Red Hat Text_MSFontService,sans-serif" font-weight="700" font-size="64" transform="matrix(1 0 0 1 4060.09 2042)">10%</text></g><g><text fill="#1D1D1A" font-family="Red Hat Text,Red Hat Text_MSFontService,sans-serif" font-weight="700" font-size="64" transform="matrix(1 0 0 1 4181.29 2042)"> </text></g><g><text fill="#1D1D1A" font-family="Red Hat Text,Red Hat Text_MSFontService,sans-serif" font-weight="700" font-size="64" transform="matrix(1 0 0 1 4060.09 1811)">10%</text></g><g><text fill="#1D1D1A" font-family="Red Hat Text,Red Hat Text_MSFontService,sans-serif" font-weight="700" font-size="64" transform="matrix(1 0 0 1 4181.29 1811)"> </text></g><g><text fill="#1D1D1A" font-family="Red Hat Text,Red Hat Text_MSFontService,sans-serif" font-weight="700" font-size="64" transform="matrix(1 0 0 1 4060.09 1580)">10%</text></g><g><text fill="#1D1D1A" font-family="Red Hat Text,Red Hat Text_MSFontService,sans-serif" font-weight="700" font-size="64" transform="matrix(1 0 0 1 4181.29 1580)"> </text></g><g><text fill="#1D1D1A" font-family="Red Hat Text,Red Hat Text_MSFontService,sans-serif" font-weight="700" font-size="64" transform="matrix(1 0 0 1 4060.09 1350)">10%</text></g><g><text fill="#1D1D1A" font-family="Red Hat Text,Red Hat Text_MSFontService,sans-serif" font-weight="700" font-size="64" transform="matrix(1 0 0 1 4181.29 1350)"> </text></g><g><text fill="#1D1D1A" font-family="Red Hat Text,Red Hat Text_MSFontService,sans-serif" font-weight="700" font-size="64" transform="matrix(1 0 0 1 4060.09 1119)">10%</text></g><g><text fill="#1D1D1A" font-family="Red Hat Text,Red Hat Text_MSFontService,sans-serif" font-weight="700" font-size="64" transform="matrix(1 0 0 1 4181.29 1119)"> </text></g><g><text fill="#1D1D1A" font-family="Red Hat Text,Red Hat Text_MSFontService,sans-serif" font-weight="700" font-size="64" transform="matrix(1 0 0 1 4145.45 657)">5%</text></g><g><text fill="#1D1D1A" font-family="Red Hat Text,Red Hat Text_MSFontService,sans-serif" font-weight="700" font-size="64" transform="matrix(1 0 0 1 4237.21 657)"> </text></g><g><text fill="#1D1D1A" font-family="Red Hat Text,Red Hat Text_MSFontService,sans-serif" font-weight="700" font-size="64" transform="matrix(1 0 0 1 4060.09 426)">10%</text></g><g><text fill="#1D1D1A" font-family="Red Hat Text,Red Hat Text_MSFontService,sans-serif" font-weight="700" font-size="64" transform="matrix(1 0 0 1 4181.29 426)"> </text></g><g><text fill="#1D1D1A" font-family="Red Hat Text,Red Hat Text_MSFontService,sans-serif" font-weight="700" font-size="64" transform="matrix(1 0 0 1 4060.09 196)">10%</text></g><g><text fill="#1D1D1A" font-family="Red Hat Text,Red Hat Text_MSFontService,sans-serif" font-weight="700" font-size="64" transform="matrix(1 0 0 1 4181.29 196)"> </text></g><g><text fill="#1D1D1A" font-family="Red Hat Text,Red Hat Text_MSFontService,sans-serif" font-weight="400" font-size="73" transform="matrix(1 0 0 1 603.225 2040)">Physics and Astronomy</text></g><g><text fill="#1D1D1A" font-family="Red Hat Text,Red Hat Text_MSFontService,sans-serif" font-weight="400" font-size="73" transform="matrix(1 0 0 1 937.396 1809)">Mathematics</text></g><g><text fill="#1D1D1A" font-family="Red Hat Text,Red Hat Text_MSFontService,sans-serif" font-weight="400" font-size="73" transform="matrix(1 0 0 1 786.856 1578)">Materials Science</text></g><g><text fill="#1D1D1A" font-family="Red Hat Text,Red Hat Text_MSFontService,sans-serif" font-weight="400" font-size="73" transform="matrix(1 0 0 1 981.464 1348)">Geophysics</text></g><g><text fill="#1D1D1A" font-family="Red Hat Text,Red Hat Text_MSFontService,sans-serif" font-weight="400" font-size="73" transform="matrix(1 0 0 1 1083.01 1117)">Geology</text></g><g><text fill="#1D1D1A" font-family="Red Hat Text,Red Hat Text_MSFontService,sans-serif" font-weight="400" font-size="73" transform="matrix(1 0 0 1 994.298 886)">Geography</text></g><g><text fill="#1D1D1A" font-family="Red Hat Text,Red Hat Text_MSFontService,sans-serif" font-weight="400" font-size="73" transform="matrix(1 0 0 1 580.445 655)">Environmental Sciences</text></g><g><text fill="#1D1D1A" font-family="Red Hat Text,Red Hat Text_MSFontService,sans-serif" font-weight="400" font-size="73" transform="matrix(1 0 0 1 495.172 424)">Earth and Marine Sciences</text></g><g><text fill="#1D1D1A" font-family="Red Hat Text,Red Hat Text_MSFontService,sans-serif" font-weight="400" font-size="73" transform="matrix(1 0 0 1 1027.09 194)">Chemistry</text></g><g><rect x="354" y="2373" width="37.9998" height="38.0002" fill="#DE472C"/></g><g><text fill="#1D1D1A" font-family="Red Hat Text,Red Hat Text_MSFontService,sans-serif" font-weight="400" font-size="64" transform="matrix(1 0 0 1 409.722 2409)">Academic Reputation</text></g><g><rect x="1158" y="2373" width="37.9998" height="38.0002" fill="#FECC01"/></g><g><text fill="#1D1D1A" font-family="Red Hat Text,Red Hat Text_MSFontService,sans-serif" font-weight="400" font-size="64" transform="matrix(1 0 0 1 1213.21 2409)">Employer Reputation</text></g><g><rect x="1951" y="2373" width="37.9998" height="38.0002" fill="#739ED9"/></g><g><text fill="#1D1D1A" font-family="Red Hat Text,Red Hat Text_MSFontService,sans-serif" font-weight="400" font-size="64" transform="matrix(1 0 0 1 2006.85 2409)">Citations per Paper</text></g><g><rect x="2694" y="2373" width="38.0002" height="38.0002" fill="#F7A70D"/></g><g><text fill="#1D1D1A" font-family="Red Hat Text,Red Hat Text_MSFontService,sans-serif" font-weight="400" font-size="64" transform="matrix(1 0 0 1 2749.25 2409)">H-Index</text></g><g><rect x="3112" y="2373" width="38.0002" height="38.0002" fill="#F76000"/></g><g><text fill="#1D1D1A" font-family="Red Hat Text,Red Hat Text_MSFontService,sans-serif" font-weight="400" font-size="64" transform="matrix(1 0 0 1 3167.74 2409)">International Research Network</text></g></g></svg>