<svg width="4400" height="2475" xmlns="http://www.w3.org/2000/svg" xmlns:xlink="http://www.w3.org/1999/xlink" xml:space="preserve" overflow="hidden"><defs><clipPath id="clip0"><rect x="1436" y="57" width="2829" height="2081"/></clipPath></defs><g><g clip-path="url(#clip0)"><path d="M2849.09 2096.07 1436 2096.07 1436 2044.07 2849.09 2044.07ZM3132.1 1966.06 1436 1966.06 1436 1914.06 3132.1 1914.06ZM3414.11 1836.06 1436 1836.06 1436 1784.06 3414.11 1784.06ZM3414.11 1706.06 1436 1706.06 1436 1654.05 3414.11 1654.05ZM2849.09 1577.05 1436 1577.05 1436 1525.05 2849.09 1525.05ZM2849.09 1447.05 1436 1447.05 1436 1395.05 2849.09 1395.05ZM3414.11 1317.04 1436 1317.04 1436 1265.04 3414.11 1265.04ZM2849.09 1187.04 1436 1187.04 1436 1135.04 2849.09 1135.04ZM2708.09 1057.03 1436 1057.03 1436 1005.03 2708.09 1005.03ZM2849.09 927.03 1436 927.03 1436 876.029 2849.09 876.029ZM2567.08 798.026 1436 798.026 1436 746.024 2567.08 746.024ZM3132.1 668.022 1436 668.022 1436 616.02 3132.1 616.02ZM2849.09 538.018 1436 538.018 1436 486.016 2849.09 486.016ZM2849.09 408.013 1436 408.013 1436 356.012 2849.09 356.012ZM3414.11 278.009 1436 278.009 1436 227.007 3414.11 227.007ZM2849.09 149.005 1436 149.005 1436 97.0032 2849.09 97.0032Z" fill="#DE472C"/></g><g><path d="M3132.1 2096.07 2849.09 2096.07 2849.09 2044.07 3132.1 2044.07ZM3414.11 1966.06 3132.1 1966.06 3132.1 1914.06 3414.11 1914.06ZM3697.12 1836.06 3414.11 1836.06 3414.11 1784.06 3697.12 1784.06ZM3979.13 1706.06 3414.11 1706.06 3414.11 1654.05 3979.13 1654.05ZM3697.12 1577.05 2849.09 1577.05 2849.09 1525.05 3697.12 1525.05ZM3697.12 1447.05 2849.09 1447.05 2849.09 1395.05 3697.12 1395.05ZM3697.12 1317.04 3414.11 1317.04 3414.11 1265.04 3697.12 1265.04ZM3697.12 1187.04 2849.09 1187.04 2849.09 1135.04 3697.12 1135.04ZM4121.14 1057.03 2708.09 1057.03 2708.09 1005.03 4121.14 1005.03ZM3132.1 927.03 2849.09 927.03 2849.09 876.029 3132.1 876.029ZM3132.1 798.026 2567.08 798.026 2567.08 746.024 3132.1 746.024ZM3414.11 668.022 3132.1 668.022 3132.1 616.02 3414.11 616.02ZM3132.1 538.018 2849.09 538.018 2849.09 486.016 3132.1 486.016ZM3697.12 408.013 2849.09 408.013 2849.09 356.012 3697.12 356.012ZM3697.12 278.009 3414.11 278.009 3414.11 227.007 3697.12 227.007ZM3697.12 149.005 2849.09 149.005 2849.09 97.0032 3697.12 97.0032Z" fill="#FECC01"/></g><g><path d="M3697.12 2096.07 3132.1 2096.07 3132.1 2044.07 3697.12 2044.07ZM3838.13 1966.06 3414.11 1966.06 3414.11 1914.06 3838.13 1914.06ZM3838.13 1836.06 3697.12 1836.06 3697.12 1784.06 3838.13 1784.06ZM4262.14 1706.06 3979.13 1706.06 3979.13 1654.05 4262.14 1654.05ZM3979.13 1577.05 3697.12 1577.05 3697.12 1525.05 3979.13 1525.05ZM3979.13 1447.05 3697.12 1447.05 3697.12 1395.05 3979.13 1395.05ZM4121.14 1317.04 3697.12 1317.04 3697.12 1265.04 4121.14 1265.04ZM3838.13 1187.04 3697.12 1187.04 3697.12 1135.04 3838.13 1135.04ZM4262.14 1057.03 4121.14 1057.03 4121.14 1005.03 4262.14 1005.03ZM3697.12 927.03 3132.1 927.03 3132.1 876.029 3697.12 876.029ZM3697.12 798.026 3132.1 798.026 3132.1 746.024 3697.12 746.024ZM3838.13 668.022 3414.11 668.022 3414.11 616.02 3838.13 616.02ZM3697.12 538.018 3132.1 538.018 3132.1 486.016 3697.12 486.016ZM3979.13 408.013 3697.12 408.013 3697.12 356.012 3979.13 356.012ZM3979.13 278.009 3697.12 278.009 3697.12 227.007 3979.13 227.007ZM3979.13 149.005 3697.12 149.005 3697.12 97.0032 3979.13 97.0032Z" fill="#739ED9"/></g><g><path d="M4262.14 2096.07 3697.12 2096.07 3697.12 2044.07 4262.14 2044.07ZM4262.14 1966.06 3838.13 1966.06 3838.13 1914.06 4262.14 1914.06ZM4262.14 1836.06 3838.13 1836.06 3838.13 1784.06 4262.14 1784.06ZM4262.14 1577.05 3979.13 1577.05 3979.13 1525.05 4262.14 1525.05ZM4262.14 1447.05 3979.13 1447.05 3979.13 1395.05 4262.14 1395.05ZM4262.14 1317.04 4121.14 1317.04 4121.14 1265.04 4262.14 1265.04ZM4262.14 1187.04 3838.13 1187.04 3838.13 1135.04 4262.14 1135.04ZM4262.14 927.03 3697.12 927.03 3697.12 876.029 4262.14 876.029ZM4262.14 798.026 3697.12 798.026 3697.12 746.024 4262.14 746.024ZM4262.14 668.022 3838.13 668.022 3838.13 616.02 4262.14 616.02ZM4262.14 538.018 3697.12 538.018 3697.12 486.016 4262.14 486.016ZM4262.14 408.013 3979.13 408.013 3979.13 356.012 4262.14 356.012ZM4262.14 278.009 3979.13 278.009 3979.13 227.007 4262.14 227.007ZM4262.14 149.005 3979.13 149.005 3979.13 97.0032 4262.14 97.0032Z" fill="#F7A70D"/></g><g><path d="M0 0 0.000360892 2077" stroke="#DFDFDB" stroke-width="3.4375" stroke-linejoin="round" stroke-miterlimit="10" fill="none" fill-rule="evenodd" transform="matrix(1 0 0 -1 1436.5 2134.5)"/></g><g><text fill="#FFFFFF" font-family="Red Hat Text,Red Hat Text_MSFontService,sans-serif" font-weight="700" font-size="64" transform="matrix(1 0 0 1 2074.83 2092)">50%</text></g><g><text fill="#FFFFFF" font-family="Red Hat Text,Red Hat Text_MSFontService,sans-serif" font-weight="700" font-size="64" transform="matrix(1 0 0 1 2210.86 2092)"> </text></g><g><text fill="#FFFFFF" font-family="Red Hat Text,Red Hat Text_MSFontService,sans-serif" font-weight="700" font-size="64" transform="matrix(1 0 0 1 2214.98 1963)">60%</text></g><g><text fill="#FFFFFF" font-family="Red Hat Text,Red Hat Text_MSFontService,sans-serif" font-weight="700" font-size="64" transform="matrix(1 0 0 1 2353.26 1963)"> </text></g><g><text fill="#FFFFFF" font-family="Red Hat Text,Red Hat Text_MSFontService,sans-serif" font-weight="700" font-size="64" transform="matrix(1 0 0 1 2357.63 1833)">70%</text></g><g><text fill="#FFFFFF" font-family="Red Hat Text,Red Hat Text_MSFontService,sans-serif" font-weight="700" font-size="64" transform="matrix(1 0 0 1 2493.16 1833)"> </text></g><g><text fill="#FFFFFF" font-family="Red Hat Text,Red Hat Text_MSFontService,sans-serif" font-weight="700" font-size="64" transform="matrix(1 0 0 1 2357.63 1703)">70%</text></g><g><text fill="#FFFFFF" font-family="Red Hat Text,Red Hat Text_MSFontService,sans-serif" font-weight="700" font-size="64" transform="matrix(1 0 0 1 2493.16 1703)"> </text></g><g><text fill="#FFFFFF" font-family="Red Hat Text,Red Hat Text_MSFontService,sans-serif" font-weight="700" font-size="64" transform="matrix(1 0 0 1 2074.83 1573)">50%</text></g><g><text fill="#FFFFFF" font-family="Red Hat Text,Red Hat Text_MSFontService,sans-serif" font-weight="700" font-size="64" transform="matrix(1 0 0 1 2210.86 1573)"> </text></g><g><text fill="#FFFFFF" font-family="Red Hat Text,Red Hat Text_MSFontService,sans-serif" font-weight="700" font-size="64" transform="matrix(1 0 0 1 2074.83 1443)">50%</text></g><g><text fill="#FFFFFF" font-family="Red Hat Text,Red Hat Text_MSFontService,sans-serif" font-weight="700" font-size="64" transform="matrix(1 0 0 1 2210.86 1443)"> </text></g><g><text fill="#FFFFFF" font-family="Red Hat Text,Red Hat Text_MSFontService,sans-serif" font-weight="700" font-size="64" transform="matrix(1 0 0 1 2357.63 1314)">70%</text></g><g><text fill="#FFFFFF" font-family="Red Hat Text,Red Hat Text_MSFontService,sans-serif" font-weight="700" font-size="64" transform="matrix(1 0 0 1 2493.16 1314)"> </text></g><g><text fill="#FFFFFF" font-family="Red Hat Text,Red Hat Text_MSFontService,sans-serif" font-weight="700" font-size="64" transform="matrix(1 0 0 1 2074.83 1184)">50%</text></g><g><text fill="#FFFFFF" font-family="Red Hat Text,Red Hat Text_MSFontService,sans-serif" font-weight="700" font-size="64" transform="matrix(1 0 0 1 2210.86 1184)"> </text></g><g><text fill="#FFFFFF" font-family="Red Hat Text,Red Hat Text_MSFontService,sans-serif" font-weight="700" font-size="64" transform="matrix(1 0 0 1 2004.39 1054)">45%</text></g><g><text fill="#FFFFFF" font-family="Red Hat Text,Red Hat Text_MSFontService,sans-serif" font-weight="700" font-size="64" transform="matrix(1 0 0 1 2140.03 1054)"> </text></g><g><text fill="#FFFFFF" font-family="Red Hat Text,Red Hat Text_MSFontService,sans-serif" font-weight="700" font-size="64" transform="matrix(1 0 0 1 2074.83 924)">50%</text></g><g><text fill="#FFFFFF" font-family="Red Hat Text,Red Hat Text_MSFontService,sans-serif" font-weight="700" font-size="64" transform="matrix(1 0 0 1 2210.86 924)"> </text></g><g><text fill="#FFFFFF" font-family="Red Hat Text,Red Hat Text_MSFontService,sans-serif" font-weight="700" font-size="64" transform="matrix(1 0 0 1 1931.06 794)">40%</text></g><g><text fill="#FFFFFF" font-family="Red Hat Text,Red Hat Text_MSFontService,sans-serif" font-weight="700" font-size="64" transform="matrix(1 0 0 1 2072.09 794)"> </text></g><g><text fill="#FFFFFF" font-family="Red Hat Text,Red Hat Text_MSFontService,sans-serif" font-weight="700" font-size="64" transform="matrix(1 0 0 1 2214.98 664)">60%</text></g><g><text fill="#FFFFFF" font-family="Red Hat Text,Red Hat Text_MSFontService,sans-serif" font-weight="700" font-size="64" transform="matrix(1 0 0 1 2353.26 664)"> </text></g><g><text fill="#FFFFFF" font-family="Red Hat Text,Red Hat Text_MSFontService,sans-serif" font-weight="700" font-size="64" transform="matrix(1 0 0 1 2074.83 535)">50%</text></g><g><text fill="#FFFFFF" font-family="Red Hat Text,Red Hat Text_MSFontService,sans-serif" font-weight="700" font-size="64" transform="matrix(1 0 0 1 2210.86 535)"> </text></g><g><text fill="#FFFFFF" font-family="Red Hat Text,Red Hat Text_MSFontService,sans-serif" font-weight="700" font-size="64" transform="matrix(1 0 0 1 2074.83 405)">50%</text></g><g><text fill="#FFFFFF" font-family="Red Hat Text,Red Hat Text_MSFontService,sans-serif" font-weight="700" font-size="64" transform="matrix(1 0 0 1 2210.86 405)"> </text></g><g><text fill="#FFFFFF" font-family="Red Hat Text,Red Hat Text_MSFontService,sans-serif" font-weight="700" font-size="64" transform="matrix(1 0 0 1 2357.63 275)">70%</text></g><g><text fill="#FFFFFF" font-family="Red Hat Text,Red Hat Text_MSFontService,sans-serif" font-weight="700" font-size="64" transform="matrix(1 0 0 1 2493.16 275)"> </text></g><g><text fill="#FFFFFF" font-family="Red Hat Text,Red Hat Text_MSFontService,sans-serif" font-weight="700" font-size="64" transform="matrix(1 0 0 1 2074.83 145)">50%</text></g><g><text fill="#FFFFFF" font-family="Red Hat Text,Red Hat Text_MSFontService,sans-serif" font-weight="700" font-size="64" transform="matrix(1 0 0 1 2210.86 145)"> </text></g><g><text fill="#1D1D1A" font-family="Red Hat Text,Red Hat Text_MSFontService,sans-serif" font-weight="700" font-size="64" transform="matrix(1 0 0 1 2929.89 2092)">10%</text></g><g><text fill="#1D1D1A" font-family="Red Hat Text,Red Hat Text_MSFontService,sans-serif" font-weight="700" font-size="64" transform="matrix(1 0 0 1 3051.1 2092)"> </text></g><g><text fill="#1D1D1A" font-family="Red Hat Text,Red Hat Text_MSFontService,sans-serif" font-weight="700" font-size="64" transform="matrix(1 0 0 1 3212.44 1963)">10%</text></g><g><text fill="#1D1D1A" font-family="Red Hat Text,Red Hat Text_MSFontService,sans-serif" font-weight="700" font-size="64" transform="matrix(1 0 0 1 3333.65 1963)"> </text></g><g><text fill="#1D1D1A" font-family="Red Hat Text,Red Hat Text_MSFontService,sans-serif" font-weight="700" font-size="64" transform="matrix(1 0 0 1 3494.99 1833)">10%</text></g><g><text fill="#1D1D1A" font-family="Red Hat Text,Red Hat Text_MSFontService,sans-serif" font-weight="700" font-size="64" transform="matrix(1 0 0 1 3616.2 1833)"> </text></g><g><text fill="#1D1D1A" font-family="Red Hat Text,Red Hat Text_MSFontService,sans-serif" font-weight="700" font-size="64" transform="matrix(1 0 0 1 3629.46 1703)">20%</text></g><g><text fill="#1D1D1A" font-family="Red Hat Text,Red Hat Text_MSFontService,sans-serif" font-weight="700" font-size="64" transform="matrix(1 0 0 1 3764.28 1703)"> </text></g><g><text fill="#1D1D1A" font-family="Red Hat Text,Red Hat Text_MSFontService,sans-serif" font-weight="700" font-size="64" transform="matrix(1 0 0 1 3204.48 1573)">30%</text></g><g><text fill="#1D1D1A" font-family="Red Hat Text,Red Hat Text_MSFontService,sans-serif" font-weight="700" font-size="64" transform="matrix(1 0 0 1 3341.61 1573)"> </text></g><g><text fill="#1D1D1A" font-family="Red Hat Text,Red Hat Text_MSFontService,sans-serif" font-weight="700" font-size="64" transform="matrix(1 0 0 1 3204.48 1443)">30%</text></g><g><text fill="#1D1D1A" font-family="Red Hat Text,Red Hat Text_MSFontService,sans-serif" font-weight="700" font-size="64" transform="matrix(1 0 0 1 3341.61 1443)"> </text></g><g><text fill="#1D1D1A" font-family="Red Hat Text,Red Hat Text_MSFontService,sans-serif" font-weight="700" font-size="64" transform="matrix(1 0 0 1 3494.99 1314)">10%</text></g><g><text fill="#1D1D1A" font-family="Red Hat Text,Red Hat Text_MSFontService,sans-serif" font-weight="700" font-size="64" transform="matrix(1 0 0 1 3616.2 1314)"> </text></g><g><text fill="#1D1D1A" font-family="Red Hat Text,Red Hat Text_MSFontService,sans-serif" font-weight="700" font-size="64" transform="matrix(1 0 0 1 3204.48 1184)">30%</text></g><g><text fill="#1D1D1A" font-family="Red Hat Text,Red Hat Text_MSFontService,sans-serif" font-weight="700" font-size="64" transform="matrix(1 0 0 1 3341.61 1184)"> </text></g><g><text fill="#1D1D1A" font-family="Red Hat Text,Red Hat Text_MSFontService,sans-serif" font-weight="700" font-size="64" transform="matrix(1 0 0 1 3346.3 1054)">50%</text></g><g><text fill="#1D1D1A" font-family="Red Hat Text,Red Hat Text_MSFontService,sans-serif" font-weight="700" font-size="64" transform="matrix(1 0 0 1 3482.33 1054)"> </text></g><g><text fill="#1D1D1A" font-family="Red Hat Text,Red Hat Text_MSFontService,sans-serif" font-weight="700" font-size="64" transform="matrix(1 0 0 1 2929.89 924)">10%</text></g><g><text fill="#1D1D1A" font-family="Red Hat Text,Red Hat Text_MSFontService,sans-serif" font-weight="700" font-size="64" transform="matrix(1 0 0 1 3051.1 924)"> </text></g><g><text fill="#1D1D1A" font-family="Red Hat Text,Red Hat Text_MSFontService,sans-serif" font-weight="700" font-size="64" transform="matrix(1 0 0 1 2781.81 794)">20%</text></g><g><text fill="#1D1D1A" font-family="Red Hat Text,Red Hat Text_MSFontService,sans-serif" font-weight="700" font-size="64" transform="matrix(1 0 0 1 2916.63 794)"> </text></g><g><text fill="#1D1D1A" font-family="Red Hat Text,Red Hat Text_MSFontService,sans-serif" font-weight="700" font-size="64" transform="matrix(1 0 0 1 3212.44 664)">10%</text></g><g><text fill="#1D1D1A" font-family="Red Hat Text,Red Hat Text_MSFontService,sans-serif" font-weight="700" font-size="64" transform="matrix(1 0 0 1 3333.65 664)"> </text></g><g><text fill="#1D1D1A" font-family="Red Hat Text,Red Hat Text_MSFontService,sans-serif" font-weight="700" font-size="64" transform="matrix(1 0 0 1 2929.89 535)">10%</text></g><g><text fill="#1D1D1A" font-family="Red Hat Text,Red Hat Text_MSFontService,sans-serif" font-weight="700" font-size="64" transform="matrix(1 0 0 1 3051.1 535)"> </text></g><g><text fill="#1D1D1A" font-family="Red Hat Text,Red Hat Text_MSFontService,sans-serif" font-weight="700" font-size="64" transform="matrix(1 0 0 1 3204.48 405)">30%</text></g><g><text fill="#1D1D1A" font-family="Red Hat Text,Red Hat Text_MSFontService,sans-serif" font-weight="700" font-size="64" transform="matrix(1 0 0 1 3341.61 405)"> </text></g><g><text fill="#1D1D1A" font-family="Red Hat Text,Red Hat Text_MSFontService,sans-serif" font-weight="700" font-size="64" transform="matrix(1 0 0 1 3494.99 275)">10%</text></g><g><text fill="#1D1D1A" font-family="Red Hat Text,Red Hat Text_MSFontService,sans-serif" font-weight="700" font-size="64" transform="matrix(1 0 0 1 3616.2 275)"> </text></g><g><text fill="#1D1D1A" font-family="Red Hat Text,Red Hat Text_MSFontService,sans-serif" font-weight="700" font-size="64" transform="matrix(1 0 0 1 3204.48 145)">30%</text></g><g><text fill="#1D1D1A" font-family="Red Hat Text,Red Hat Text_MSFontService,sans-serif" font-weight="700" font-size="64" transform="matrix(1 0 0 1 3341.61 145)"> </text></g><g><text fill="#1D1D1A" font-family="Red Hat Text,Red Hat Text_MSFontService,sans-serif" font-weight="700" font-size="64" transform="matrix(1 0 0 1 3346.91 2092)">20%</text></g><g><text fill="#1D1D1A" font-family="Red Hat Text,Red Hat Text_MSFontService,sans-serif" font-weight="700" font-size="64" transform="matrix(1 0 0 1 3481.73 2092)"> </text></g><g><text fill="#1D1D1A" font-family="Red Hat Text,Red Hat Text_MSFontService,sans-serif" font-weight="700" font-size="64" transform="matrix(1 0 0 1 3568 1963)">15%</text></g><g><text fill="#1D1D1A" font-family="Red Hat Text,Red Hat Text_MSFontService,sans-serif" font-weight="700" font-size="64" transform="matrix(1 0 0 1 3684.46 1963)"> </text></g><g><text fill="#1D1D1A" font-family="Red Hat Text,Red Hat Text_MSFontService,sans-serif" font-weight="700" font-size="64" transform="matrix(1 0 0 1 3721.62 1833)">5%</text></g><g><text fill="#1D1D1A" font-family="Red Hat Text,Red Hat Text_MSFontService,sans-serif" font-weight="700" font-size="64" transform="matrix(1 0 0 1 3813.38 1833)"> </text></g><g><text fill="#1D1D1A" font-family="Red Hat Text,Red Hat Text_MSFontService,sans-serif" font-weight="700" font-size="64" transform="matrix(1 0 0 1 4060.09 1703)">10%</text></g><g><text fill="#1D1D1A" font-family="Red Hat Text,Red Hat Text_MSFontService,sans-serif" font-weight="700" font-size="64" transform="matrix(1 0 0 1 4181.29 1703)"> </text></g><g><text fill="#1D1D1A" font-family="Red Hat Text,Red Hat Text_MSFontService,sans-serif" font-weight="700" font-size="64" transform="matrix(1 0 0 1 3777.54 1573)">10%</text></g><g><text fill="#1D1D1A" font-family="Red Hat Text,Red Hat Text_MSFontService,sans-serif" font-weight="700" font-size="64" transform="matrix(1 0 0 1 3898.74 1573)"> </text></g><g><text fill="#1D1D1A" font-family="Red Hat Text,Red Hat Text_MSFontService,sans-serif" font-weight="700" font-size="64" transform="matrix(1 0 0 1 3777.54 1443)">10%</text></g><g><text fill="#1D1D1A" font-family="Red Hat Text,Red Hat Text_MSFontService,sans-serif" font-weight="700" font-size="64" transform="matrix(1 0 0 1 3898.74 1443)"> </text></g><g><text fill="#1D1D1A" font-family="Red Hat Text,Red Hat Text_MSFontService,sans-serif" font-weight="700" font-size="64" transform="matrix(1 0 0 1 3850.55 1314)">15%</text></g><g><text fill="#1D1D1A" font-family="Red Hat Text,Red Hat Text_MSFontService,sans-serif" font-weight="700" font-size="64" transform="matrix(1 0 0 1 3967.01 1314)"> </text></g><g><text fill="#1D1D1A" font-family="Red Hat Text,Red Hat Text_MSFontService,sans-serif" font-weight="700" font-size="64" transform="matrix(1 0 0 1 3721.62 1184)">5%</text></g><g><text fill="#1D1D1A" font-family="Red Hat Text,Red Hat Text_MSFontService,sans-serif" font-weight="700" font-size="64" transform="matrix(1 0 0 1 3813.38 1184)"> </text></g><g><text fill="#1D1D1A" font-family="Red Hat Text,Red Hat Text_MSFontService,sans-serif" font-weight="700" font-size="64" transform="matrix(1 0 0 1 4145.45 1054)">5%</text></g><g><text fill="#1D1D1A" font-family="Red Hat Text,Red Hat Text_MSFontService,sans-serif" font-weight="700" font-size="64" transform="matrix(1 0 0 1 4237.21 1054)"> </text></g><g><text fill="#1D1D1A" font-family="Red Hat Text,Red Hat Text_MSFontService,sans-serif" font-weight="700" font-size="64" transform="matrix(1 0 0 1 3346.91 924)">20%</text></g><g><text fill="#1D1D1A" font-family="Red Hat Text,Red Hat Text_MSFontService,sans-serif" font-weight="700" font-size="64" transform="matrix(1 0 0 1 3481.73 924)"> </text></g><g><text fill="#1D1D1A" font-family="Red Hat Text,Red Hat Text_MSFontService,sans-serif" font-weight="700" font-size="64" transform="matrix(1 0 0 1 3346.91 794)">20%</text></g><g><text fill="#1D1D1A" font-family="Red Hat Text,Red Hat Text_MSFontService,sans-serif" font-weight="700" font-size="64" transform="matrix(1 0 0 1 3481.73 794)"> </text></g><g><text fill="#1D1D1A" font-family="Red Hat Text,Red Hat Text_MSFontService,sans-serif" font-weight="700" font-size="64" transform="matrix(1 0 0 1 3568 664)">15%</text></g><g><text fill="#1D1D1A" font-family="Red Hat Text,Red Hat Text_MSFontService,sans-serif" font-weight="700" font-size="64" transform="matrix(1 0 0 1 3684.46 664)"> </text></g><g><text fill="#1D1D1A" font-family="Red Hat Text,Red Hat Text_MSFontService,sans-serif" font-weight="700" font-size="64" transform="matrix(1 0 0 1 3346.91 535)">20%</text></g><g><text fill="#1D1D1A" font-family="Red Hat Text,Red Hat Text_MSFontService,sans-serif" font-weight="700" font-size="64" transform="matrix(1 0 0 1 3481.73 535)"> </text></g><g><text fill="#1D1D1A" font-family="Red Hat Text,Red Hat Text_MSFontService,sans-serif" font-weight="700" font-size="64" transform="matrix(1 0 0 1 3777.54 405)">10%</text></g><g><text fill="#1D1D1A" font-family="Red Hat Text,Red Hat Text_MSFontService,sans-serif" font-weight="700" font-size="64" transform="matrix(1 0 0 1 3898.74 405)"> </text></g><g><text fill="#1D1D1A" font-family="Red Hat Text,Red Hat Text_MSFontService,sans-serif" font-weight="700" font-size="64" transform="matrix(1 0 0 1 3777.54 275)">10%</text></g><g><text fill="#1D1D1A" font-family="Red Hat Text,Red Hat Text_MSFontService,sans-serif" font-weight="700" font-size="64" transform="matrix(1 0 0 1 3898.74 275)"> </text></g><g><text fill="#1D1D1A" font-family="Red Hat Text,Red Hat Text_MSFontService,sans-serif" font-weight="700" font-size="64" transform="matrix(1 0 0 1 3777.54 145)">10%</text></g><g><text fill="#1D1D1A" font-family="Red Hat Text,Red Hat Text_MSFontService,sans-serif" font-weight="700" font-size="64" transform="matrix(1 0 0 1 3898.74 145)"> </text></g><g><text fill="#1D1D1A" font-family="Red Hat Text,Red Hat Text_MSFontService,sans-serif" font-weight="700" font-size="64" transform="matrix(1 0 0 1 3912.01 2092)">20%</text></g><g><text fill="#1D1D1A" font-family="Red Hat Text,Red Hat Text_MSFontService,sans-serif" font-weight="700" font-size="64" transform="matrix(1 0 0 1 4046.83 2092)"> </text></g><g><text fill="#1D1D1A" font-family="Red Hat Text,Red Hat Text_MSFontService,sans-serif" font-weight="700" font-size="64" transform="matrix(1 0 0 1 3991.82 1963)">15%</text></g><g><text fill="#1D1D1A" font-family="Red Hat Text,Red Hat Text_MSFontService,sans-serif" font-weight="700" font-size="64" transform="matrix(1 0 0 1 4108.28 1963)"> </text></g><g><text fill="#1D1D1A" font-family="Red Hat Text,Red Hat Text_MSFontService,sans-serif" font-weight="700" font-size="64" transform="matrix(1 0 0 1 3991.82 1833)">15%</text></g><g><text fill="#1D1D1A" font-family="Red Hat Text,Red Hat Text_MSFontService,sans-serif" font-weight="700" font-size="64" transform="matrix(1 0 0 1 4108.28 1833)"> </text></g><g><text fill="#1D1D1A" font-family="Red Hat Text,Red Hat Text_MSFontService,sans-serif" font-weight="700" font-size="64" transform="matrix(1 0 0 1 4060.09 1573)">10%</text></g><g><text fill="#1D1D1A" font-family="Red Hat Text,Red Hat Text_MSFontService,sans-serif" font-weight="700" font-size="64" transform="matrix(1 0 0 1 4181.29 1573)"> </text></g><g><text fill="#1D1D1A" font-family="Red Hat Text,Red Hat Text_MSFontService,sans-serif" font-weight="700" font-size="64" transform="matrix(1 0 0 1 4060.09 1443)">10%</text></g><g><text fill="#1D1D1A" font-family="Red Hat Text,Red Hat Text_MSFontService,sans-serif" font-weight="700" font-size="64" transform="matrix(1 0 0 1 4181.29 1443)"> </text></g><g><text fill="#1D1D1A" font-family="Red Hat Text,Red Hat Text_MSFontService,sans-serif" font-weight="700" font-size="64" transform="matrix(1 0 0 1 4145.45 1314)">5%</text></g><g><text fill="#1D1D1A" font-family="Red Hat Text,Red Hat Text_MSFontService,sans-serif" font-weight="700" font-size="64" transform="matrix(1 0 0 1 4237.21 1314)"> </text></g><g><text fill="#1D1D1A" font-family="Red Hat Text,Red Hat Text_MSFontService,sans-serif" font-weight="700" font-size="64" transform="matrix(1 0 0 1 3991.82 1184)">15%</text></g><g><text fill="#1D1D1A" font-family="Red Hat Text,Red Hat Text_MSFontService,sans-serif" font-weight="700" font-size="64" transform="matrix(1 0 0 1 4108.28 1184)"> </text></g><g><text fill="#1D1D1A" font-family="Red Hat Text,Red Hat Text_MSFontService,sans-serif" font-weight="700" font-size="64" transform="matrix(1 0 0 1 3912.01 924)">20%</text></g><g><text fill="#1D1D1A" font-family="Red Hat Text,Red Hat Text_MSFontService,sans-serif" font-weight="700" font-size="64" transform="matrix(1 0 0 1 4046.83 924)"> </text></g><g><text fill="#1D1D1A" font-family="Red Hat Text,Red Hat Text_MSFontService,sans-serif" font-weight="700" font-size="64" transform="matrix(1 0 0 1 3912.01 794)">20%</text></g><g><text fill="#1D1D1A" font-family="Red Hat Text,Red Hat Text_MSFontService,sans-serif" font-weight="700" font-size="64" transform="matrix(1 0 0 1 4046.83 794)"> </text></g><g><text fill="#1D1D1A" font-family="Red Hat Text,Red Hat Text_MSFontService,sans-serif" font-weight="700" font-size="64" transform="matrix(1 0 0 1 3991.82 664)">15%</text></g><g><text fill="#1D1D1A" font-family="Red Hat Text,Red Hat Text_MSFontService,sans-serif" font-weight="700" font-size="64" transform="matrix(1 0 0 1 4108.28 664)"> </text></g><g><text fill="#1D1D1A" font-family="Red Hat Text,Red Hat Text_MSFontService,sans-serif" font-weight="700" font-size="64" transform="matrix(1 0 0 1 3912.01 535)">20%</text></g><g><text fill="#1D1D1A" font-family="Red Hat Text,Red Hat Text_MSFontService,sans-serif" font-weight="700" font-size="64" transform="matrix(1 0 0 1 4046.83 535)"> </text></g><g><text fill="#1D1D1A" font-family="Red Hat Text,Red Hat Text_MSFontService,sans-serif" font-weight="700" font-size="64" transform="matrix(1 0 0 1 4060.09 405)">10%</text></g><g><text fill="#1D1D1A" font-family="Red Hat Text,Red Hat Text_MSFontService,sans-serif" font-weight="700" font-size="64" transform="matrix(1 0 0 1 4181.29 405)"> </text></g><g><text fill="#1D1D1A" font-family="Red Hat Text,Red Hat Text_MSFontService,sans-serif" font-weight="700" font-size="64" transform="matrix(1 0 0 1 4060.09 275)">10%</text></g><g><text fill="#1D1D1A" font-family="Red Hat Text,Red Hat Text_MSFontService,sans-serif" font-weight="700" font-size="64" transform="matrix(1 0 0 1 4181.29 275)"> </text></g><g><text fill="#1D1D1A" font-family="Red Hat Text,Red Hat Text_MSFontService,sans-serif" font-weight="700" font-size="64" transform="matrix(1 0 0 1 4060.09 145)">10%</text></g><g><text fill="#1D1D1A" font-family="Red Hat Text,Red Hat Text_MSFontService,sans-serif" font-weight="700" font-size="64" transform="matrix(1 0 0 1 4181.29 145)"> </text></g><g><text fill="#1D1D1A" font-family="Red Hat Text,Red Hat Text_MSFontService,sans-serif" font-weight="400" font-size="73" transform="matrix(1 0 0 1 192.741 2090)">Statistics and Operational Research</text></g><g><text fill="#1D1D1A" font-family="Red Hat Text,Red Hat Text_MSFontService,sans-serif" font-weight="400" font-size="73" transform="matrix(1 0 0 1 577.81 1961)">Sports-related Subjects</text></g><g><text fill="#1D1D1A" font-family="Red Hat Text,Red Hat Text_MSFontService,sans-serif" font-weight="400" font-size="73" transform="matrix(1 0 0 1 1040.61 1831)">Sociology</text></g><g><text fill="#1D1D1A" font-family="Red Hat Text,Red Hat Text_MSFontService,sans-serif" font-weight="400" font-size="73" transform="matrix(1 0 0 1 318.026 1701)">Social Policy and Administration</text></g><g><text fill="#1D1D1A" font-family="Red Hat Text,Red Hat Text_MSFontService,sans-serif" font-weight="400" font-size="73" transform="matrix(1 0 0 1 291.283 1571)">Politics and International Studies</text></g><g><text fill="#1D1D1A" font-family="Red Hat Text,Red Hat Text_MSFontService,sans-serif" font-weight="400" font-size="73" transform="matrix(1 0 0 1 1031.79 1441)">Marketing</text></g><g><text fill="#1D1D1A" font-family="Red Hat Text,Red Hat Text_MSFontService,sans-serif" font-weight="400" font-size="73" transform="matrix(1 0 0 1 142.599 1312)">Library and Information Management</text></g><g><text fill="#1D1D1A" font-family="Red Hat Text,Red Hat Text_MSFontService,sans-serif" font-weight="400" font-size="73" transform="matrix(1 0 0 1 1228.8 1182)">Law</text></g><g><text fill="#1D1D1A" font-family="Red Hat Text,Red Hat Text_MSFontService,sans-serif" font-weight="400" font-size="73" transform="matrix(1 0 0 1 161.46 1052)">Hospitality and Leisure Management</text></g><g><text fill="#1D1D1A" font-family="Red Hat Text,Red Hat Text_MSFontService,sans-serif" font-weight="400" font-size="73" transform="matrix(1 0 0 1 1031.63 922)">Education</text></g><g><text fill="#1D1D1A" font-family="Red Hat Text,Red Hat Text_MSFontService,sans-serif" font-weight="400" font-size="73" transform="matrix(1 0 0 1 398.853 792)">Economics and Econometrics</text></g><g><text fill="#1D1D1A" font-family="Red Hat Text,Red Hat Text_MSFontService,sans-serif" font-weight="400" font-size="73" transform="matrix(1 0 0 1 654.696 662)">Development Studies</text></g><g><text fill="#1D1D1A" font-family="Red Hat Text,Red Hat Text_MSFontService,sans-serif" font-weight="400" font-size="73" transform="matrix(1 0 0 1 222.029 533)">Communication and Media Studies</text></g><g><text fill="#1D1D1A" font-family="Red Hat Text,Red Hat Text_MSFontService,sans-serif" font-weight="400" font-size="73" transform="matrix(1 0 0 1 221.548 403)">Business and Management Studies</text></g><g><text fill="#1D1D1A" font-family="Red Hat Text,Red Hat Text_MSFontService,sans-serif" font-weight="400" font-size="73" transform="matrix(1 0 0 1 914.273 273)">Anthropology</text></g><g><text fill="#1D1D1A" font-family="Red Hat Text,Red Hat Text_MSFontService,sans-serif" font-weight="400" font-size="73" transform="matrix(1 0 0 1 574.808 143)">Accounting and Finance</text></g><g><rect x="924" y="2373" width="38.0002" height="38.0002" fill="#DE472C"/></g><g><text fill="#1D1D1A" font-family="Red Hat Text,Red Hat Text_MSFontService,sans-serif" font-weight="400" font-size="64" transform="matrix(1 0 0 1 979.81 2409)">Academic Reputation</text></g><g><rect x="1711" y="2373" width="38.0001" height="38.0002" fill="#FECC01"/></g><g><text fill="#1D1D1A" font-family="Red Hat Text,Red Hat Text_MSFontService,sans-serif" font-weight="400" font-size="64" transform="matrix(1 0 0 1 1766.13 2409)">Employer Reputation</text></g><g><rect x="2487" y="2373" width="37.9998" height="38.0002" fill="#739ED9"/></g><g><text fill="#1D1D1A" font-family="Red Hat Text,Red Hat Text_MSFontService,sans-serif" font-weight="400" font-size="64" transform="matrix(1 0 0 1 2542.6 2409)">Citations per Paper</text></g><g><rect x="3212" y="2373" width="38.0002" height="38.0002" fill="#F7A70D"/></g><g><text fill="#1D1D1A" font-family="Red Hat Text,Red Hat Text_MSFontService,sans-serif" font-weight="400" font-size="64" transform="matrix(1 0 0 1 3267.83 2409)">H-Index</text></g></g></svg>